G04 DipTrace 3.1.0.1*
G04 copper-top.gbr*
%MOIN*%
G04 #@! TF.FileFunction,Copper,L1,Top*
G04 #@! TF.Part,Single*
G04 #@! TA.AperFunction,CopperBalancing*
%ADD14C,0.012992*%
%ADD15C,0.011811*%
%ADD16C,0.015748*%
%ADD17R,0.051181X0.059055*%
%ADD18R,0.062992X0.106299*%
%ADD19R,0.106299X0.062992*%
%ADD20R,0.059055X0.051181*%
%ADD22R,0.055118X0.033465*%
%ADD23R,0.033465X0.055118*%
G04 #@! TA.AperFunction,ComponentPad*
%ADD24R,0.06X0.06*%
%ADD25C,0.06*%
%ADD26R,0.059055X0.059055*%
%ADD27C,0.059055*%
%ADD29R,0.041339X0.025591*%
G04 #@! TA.AperFunction,ComponentPad*
%ADD30R,0.062992X0.062992*%
%ADD31C,0.062992*%
%ADD32R,0.066929X0.066929*%
%ADD33C,0.066929*%
%ADD35R,0.011811X0.062992*%
%ADD36R,0.062992X0.011811*%
%ADD38R,0.037402X0.084646*%
%ADD39R,0.127953X0.084646*%
%ADD41R,0.155512X0.059055*%
%ADD42R,0.38189X0.409449*%
G04 #@! TA.AperFunction,ComponentPad*
%ADD43C,0.059055*%
%ADD45R,0.177165X0.059055*%
G04 #@! TA.AperFunction,ViaPad*
%ADD46C,0.04*%
%FSLAX26Y26*%
G04*
G70*
G90*
G75*
G01*
G04 Top*
%LPD*%
X670093Y1956037D2*
D14*
Y2056037D1*
Y1956037D2*
Y1837299D1*
X1428169Y2343470D2*
X1338472D1*
X1238457Y2443486D1*
X670093Y2056037D2*
X540782D1*
Y2305871D1*
X815882Y2580971D1*
X670093Y1837299D2*
X548194D1*
Y767499D1*
X815753Y499940D1*
X1238457Y2443486D2*
Y2453732D1*
X1315701Y2530976D1*
X818701Y2493701D2*
X815882D1*
Y2580971D1*
X1153218Y1939541D2*
Y1862297D1*
X1340698Y2231008D2*
Y2255999D1*
X1428169Y2343470D1*
X1468745Y1743654D2*
Y1775832D1*
X1538877Y1845963D1*
X1934269D1*
Y1724222D2*
X1923785Y1713738D1*
Y973003D1*
X1996879Y899908D1*
X1610262Y934367D2*
X1759404D1*
Y599929D1*
X1703171D1*
X1709409Y593690D1*
X1610262Y954052D2*
X1780241D1*
X1786220Y948073D1*
Y616879D1*
X1809409Y593690D1*
X1610262Y973738D2*
X1792886D1*
X1809399Y957224D1*
Y699919D1*
X1915627Y593690D1*
X1909409D1*
X1610262Y993423D2*
X1803365D1*
X1834396Y962391D1*
Y756163D1*
X1994094Y596465D1*
Y609005D1*
X2009409Y593690D1*
X1559425Y643675D2*
Y656173D1*
X1534428Y681171D1*
Y798982D1*
X1533491Y799919D1*
D15*
Y837911D1*
X2003129Y2068535D2*
D14*
X1760236D1*
X1703129D1*
X1590672D1*
X1584423Y2074785D1*
X1703129Y2068535D2*
Y2312878D1*
X1833720Y2443470D1*
X1584423Y2074785D2*
X1284423D1*
X1178226D1*
X1153218Y2049777D1*
X1134470D1*
Y2231008D1*
X1121971D1*
Y2443486D1*
X1128220D1*
Y2599717D2*
Y2443486D1*
Y2599717D2*
X1015730D1*
X996984Y2580971D1*
X815753Y1996661D2*
Y1856047D1*
X840751Y1831050D1*
X815753Y1996661D2*
Y2110377D1*
X670093Y2256037D1*
Y1537299D2*
Y1412349D1*
Y1420112D1*
X734617Y1355588D1*
Y1316575D1*
X857575Y1193617D1*
X847000D1*
X915743Y1518583D2*
Y1549829D1*
X878247Y1587325D1*
X784507D1*
Y1774806D1*
X840751Y1831050D1*
X1209462Y1631071D2*
Y1774995D1*
X1203402Y1781055D1*
Y1874984D1*
X1228210Y1899793D1*
Y2037278D1*
X1209462Y2056026D1*
X1159467D1*
X1153218Y2049777D1*
X915743Y1518583D2*
Y1531081D1*
X1203213D1*
Y1631071D1*
X1209462D1*
X1203402Y1781055D2*
Y1806241D1*
X1278205Y1881045D1*
X1378194Y1781055D1*
X1115753Y499940D2*
Y587399D1*
X1065727Y637425D1*
X915743D1*
X840751Y712417D1*
X784507Y1587325D2*
Y1366465D1*
X734617Y1316575D1*
X847000Y1193617D2*
Y1043633D1*
X853249Y1037383D1*
X1709409Y493690D2*
X1571955Y499940D1*
X1909409Y493690D2*
X1809409D1*
X1600990Y1587836D2*
Y1669235D1*
X1576924Y1693301D1*
X1727698Y1884785D2*
X1760236Y1917323D1*
Y2068535D1*
X1996879Y799908D2*
X2046063Y849092D1*
Y1141339D1*
X1968701Y1218701D1*
X1671913Y1362349D2*
Y1324150D1*
X1708268Y1287795D1*
X1812205D1*
X1834396Y1309987D1*
Y1356100D1*
X1721908Y1537331D2*
Y1483325D1*
X1671913Y1433331D1*
Y1362349D1*
X1279554Y914682D2*
D15*
X1317546D1*
D14*
X1432977D1*
X1494711D1*
X1533491Y875903D1*
D15*
Y837911D1*
X1812205Y1287795D2*
D14*
Y1253304D1*
X1865643Y1199866D1*
Y1118625D1*
X1834396Y1087378D1*
X1740656D1*
X1734407Y1093627D1*
X1650034D1*
X1648255Y1091848D1*
D15*
X1610262D1*
X1415381Y1168619D2*
Y1206612D1*
D14*
Y1237672D1*
X1378194Y1274858D1*
X1415381Y1168619D2*
D15*
Y1130627D1*
D14*
Y932278D1*
X1432977Y914682D1*
X1279554Y954052D2*
X1178215D1*
Y787409D1*
X1228055Y737570D1*
X1215711D1*
X1279554Y934367D2*
X1203213D1*
Y831433D1*
X1318504Y716142D1*
Y683974D1*
X1309451Y674921D1*
X1928136Y1781055D2*
X1815459D1*
Y1705685D1*
X1721908Y1612134D1*
X1610262Y1072163D2*
X1690042D1*
X1699824Y1062381D1*
X1846895D1*
X1890157Y1105643D1*
Y1443701D1*
X1781444Y1552415D1*
Y1578399D1*
X1747709Y1612134D1*
X1721908D1*
X1506612Y1406094D2*
Y1408724D1*
X1284265Y1631071D1*
X1474436Y1168619D2*
D15*
Y1206612D1*
D14*
Y1224864D1*
X1615669D1*
Y1297037D1*
X1506612Y1406094D1*
X1278205Y1781055D2*
Y1731060D1*
X1303202Y1706063D1*
X1171966Y1406094D2*
Y1456089D1*
X1259457Y1543580D1*
X1454751Y1168619D2*
D15*
Y1206612D1*
D14*
Y1232677D1*
X1471934Y1249861D1*
X1565675D1*
Y1274858D1*
X1546927Y1293606D1*
X1484433D1*
X1446937Y1331102D1*
X1246958D1*
X1171966Y1406094D1*
X915554Y1831050D2*
X984486D1*
X1034480Y1781055D1*
X915554Y1831050D2*
Y2192136D1*
X914178Y2193512D1*
X1279554Y1052478D2*
Y1052521D1*
X1323248D1*
X1343497Y1072770D1*
X1367117D1*
X1284423Y1974785D2*
X1422441Y1836766D1*
Y1573622D1*
X1500394Y1495669D1*
X1604331D1*
X1740656Y1781055D2*
X1640478D1*
X906433Y2352625D2*
Y2580971D1*
X1109283Y1631071D2*
Y1781055D1*
X1134470D1*
X1071976Y1843549D1*
Y1937289D1*
X1012604Y1996661D1*
X906433Y2352625D2*
Y2309060D1*
X971987Y2243507D1*
Y2037278D1*
X1012604Y1996661D1*
X903244Y1368598D2*
Y1212176D1*
X921803Y1193617D1*
Y1168829D1*
X1053249Y1037383D1*
X1232207Y2231008D2*
Y2278751D1*
X1284454Y2330997D1*
X1271955Y499940D2*
X1253228D1*
X1040751Y712417D1*
X1279554Y894997D2*
D15*
X1241562D1*
D14*
X1228210D1*
Y862402D1*
X1240709Y849903D1*
X1284454D1*
X1553176Y837911D2*
X1557457D1*
Y892937D1*
X1484433Y965961D1*
Y1056131D1*
X1544115Y1115814D1*
X1610262D1*
Y1111533D1*
X906433Y2580971D2*
X903244D1*
Y2612218D1*
X871761Y2643701D1*
X768701D1*
X504344Y2379344D1*
Y655115D1*
X728262Y431197D1*
X1184486D1*
X1253228Y499940D1*
X1640478Y1781055D2*
X1642148D1*
Y1429550D1*
X1628575Y1415976D1*
Y1315520D1*
X1656299Y1287795D1*
X1700672Y1243423D1*
X1753155D1*
X1746717Y1362349D2*
X1763965Y1379597D1*
Y1478995D1*
X1759280Y1703621D2*
X1756997Y1705903D1*
Y1764714D1*
X1740656Y1781055D1*
X1610262Y1111533D2*
X1639824D1*
X1659415Y1131123D1*
Y1149682D1*
X1753155Y1243423D1*
X1266535Y1235827D2*
X1188583D1*
X1055811Y1368598D1*
X903244D1*
X1395696Y1168619D2*
D15*
Y1206612D1*
D14*
Y1213612D1*
X1384444Y1224864D1*
X1277499D1*
X1266535Y1235827D1*
X1454751Y837911D2*
D15*
Y799919D1*
D14*
Y754598D1*
X1465685Y743664D1*
X1584423Y1974785D2*
Y1962286D1*
X1640667Y1906042D1*
X916203Y1735432D2*
X945112D1*
X971987Y1762307D1*
X1279554Y1013108D2*
D15*
X1317546D1*
D14*
X1345245D1*
X1364171Y994182D1*
X834316Y1670852D2*
Y1728348D1*
X841400Y1735432D1*
X1435066Y837911D2*
D15*
Y799919D1*
D14*
Y763039D1*
X1415690Y743664D1*
X1610262Y1032793D2*
X1526378D1*
X1139528Y880866D2*
X1127312Y868651D1*
X1084286D1*
X1513806Y837911D2*
Y623052D1*
X1371955Y481202D1*
Y499940D1*
X1610262Y894997D2*
D15*
X1648255D1*
D14*
X1714310D1*
X1728157Y881150D1*
Y731165D1*
X1653165Y656173D1*
X1628189D1*
X1471955Y499940D1*
X1610262Y1052478D2*
D15*
X1657657D1*
D14*
Y1024885D1*
X1823890D1*
X1040919Y1193617D2*
Y1230924D1*
X1009483Y1262360D1*
X1279554Y993423D2*
D15*
X1241562D1*
D14*
X1165932D1*
X1153218Y1006136D1*
Y1156121D1*
X1115722Y1193617D1*
X1428189Y2543472D2*
X1384446D1*
X1328202Y2599717D1*
X1238457D1*
X1371945Y1637320D2*
Y1700003D1*
X1378194Y1706252D1*
X1428189Y2474732D2*
Y2543472D1*
X1279554Y973738D2*
X989583D1*
X903244Y887399D1*
X909493D1*
X903244Y881150D1*
X1009483Y868651D2*
Y822869D1*
X940751Y754136D1*
Y712417D1*
X828441Y881150D2*
X815753D1*
X953249Y1018646D1*
Y1037383D1*
X670093Y1637299D2*
X590385D1*
Y1188060D1*
X1415381Y837911D2*
D15*
Y799919D1*
D14*
Y793349D1*
X1384444Y762412D1*
X1334449D1*
X670093Y1737299D2*
X684528D1*
X740761Y1681066D1*
Y1493585D1*
X747198Y1482329D1*
X1279554Y1032793D2*
D15*
X1241562D1*
D14*
X1239050D1*
X1190714Y1081129D1*
X1435066Y1168619D2*
D15*
X1434438Y1206612D1*
D14*
Y1274858D1*
X1540677Y1549829D2*
Y1781055D1*
X1565675D1*
X2002940D2*
Y1620627D1*
X2011562Y1612005D1*
X1034480Y1631071D2*
Y1570570D1*
X1110630Y751906D2*
Y716142D1*
X1158100Y668672D1*
X1215711D1*
X1815648Y1124874D2*
Y1168619D1*
X1753155D1*
X1378349Y674921D2*
X1434438D1*
X1459436Y649924D1*
X834346Y1368598D2*
Y1511990D1*
X840940Y1518583D1*
D46*
X1934269Y1845963D3*
Y1724222D3*
X1600990Y1587836D3*
X1576924Y1693301D3*
X1727698Y1884785D3*
X1968701Y1218701D3*
X1367117Y1072770D3*
X1604331Y1495669D3*
X1763965Y1478995D3*
X1759280Y1703621D3*
X1266535Y1235827D3*
X1656299Y1287795D3*
X1266535Y1235827D3*
X1364171Y994182D3*
X834316Y1670852D3*
X1526378Y1032793D3*
X1139528Y880866D3*
X1823890Y1024885D3*
X1034480Y1570570D3*
X1110630Y751906D3*
X1459436Y649924D3*
X1815648Y1124874D3*
X1559425Y643675D3*
X971987Y1762307D3*
X1640667Y1906042D3*
X1284454Y2330997D3*
X1315701Y2530976D3*
X818701Y2493701D3*
X1465685Y743664D3*
X1415690D3*
X1434438Y1274858D3*
X1540677Y1549829D3*
X1009483Y1262360D3*
X1153218Y1862297D3*
X1340698Y2231008D3*
X1371945Y1637320D3*
X1428189Y2474732D3*
X590385Y1188060D3*
X1284454Y849903D3*
X1190714Y1081129D3*
X1334449Y762412D3*
X1303202Y1706063D3*
X1259457Y1543580D3*
X747198Y1482329D3*
X1038770Y2644226D2*
D16*
X1073668D1*
X1293015D2*
X1619713D1*
X2047752D2*
X2058258D1*
X1038770Y2628609D2*
X1073668D1*
X1293015D2*
X1619713D1*
X2047752D2*
X2058258D1*
X1038770Y2612992D2*
X1073668D1*
X1356099D2*
X1619713D1*
X2047752D2*
X2058258D1*
X1038770Y2597375D2*
X1073668D1*
X1371694D2*
X1619713D1*
X2047752D2*
X2058258D1*
X1038770Y2581759D2*
X1073668D1*
X1529020D2*
X1619713D1*
X2047752D2*
X2058258D1*
X1038770Y2566142D2*
X1073668D1*
X1529020D2*
X1619713D1*
X2047752D2*
X2058258D1*
X1038770Y2550525D2*
X1073668D1*
X1529020D2*
X1619713D1*
X2047752D2*
X2058258D1*
X1038770Y2534908D2*
X1073668D1*
X1529020D2*
X1619713D1*
X2047752D2*
X2058258D1*
X1038770Y2519291D2*
X1262860D1*
X1529020D2*
X1619713D1*
X2047752D2*
X2058258D1*
X936008Y2503675D2*
X1073668D1*
X1529020D2*
X1619713D1*
X2047752D2*
X2058258D1*
X936008Y2488058D2*
X1073668D1*
X1313930D2*
X1387306D1*
X1469073D2*
X1619713D1*
X2047752D2*
X2058258D1*
X936008Y2472441D2*
X1073668D1*
X1298336D2*
X1385184D1*
X1471195D2*
X1619713D1*
X2047752D2*
X2058258D1*
X936008Y2456824D2*
X1073668D1*
X1293015D2*
X1389182D1*
X1467197D2*
X1619713D1*
X2047752D2*
X2058258D1*
X936008Y2441207D2*
X1073668D1*
X1293015D2*
X1402162D1*
X1454217D2*
X1619713D1*
X2047752D2*
X2058258D1*
X936008Y2425591D2*
X1073668D1*
X1297506D2*
X1619713D1*
X2047752D2*
X2058258D1*
X993495Y2409974D2*
X1073668D1*
X1313131D2*
X1619713D1*
X2047752D2*
X2058258D1*
X993495Y2394357D2*
X1073668D1*
X1528989D2*
X1619713D1*
X2047752D2*
X2058258D1*
X993495Y2378740D2*
X1073668D1*
X1528989D2*
X1619713D1*
X2047752D2*
X2058258D1*
X993495Y2363123D2*
X1256616D1*
X1528989D2*
X1619713D1*
X2047752D2*
X2058258D1*
X993495Y2347507D2*
X1244805D1*
X1528989D2*
X1619713D1*
X2047752D2*
X2058258D1*
X993495Y2331890D2*
X1241391D1*
X1528989D2*
X1619713D1*
X2047752D2*
X2058258D1*
X993495Y2316273D2*
X1228565D1*
X1528989D2*
X1619713D1*
X2047752D2*
X2058258D1*
X993495Y2300656D2*
X1067394D1*
X1314330D2*
X1327328D1*
X1528989D2*
X1619713D1*
X2047752D2*
X2058258D1*
X971626Y2285039D2*
X1067394D1*
X1286771D2*
X1328589D1*
X1410910D2*
X1619713D1*
X2047752D2*
X2058258D1*
X987220Y2269423D2*
X1067394D1*
X1286771D2*
X1314564D1*
X1395285D2*
X1619713D1*
X2047752D2*
X2058258D1*
X999585Y2253806D2*
X1067394D1*
X1286771D2*
X1304444D1*
X1379660D2*
X1619713D1*
X2047752D2*
X2058258D1*
X1001553Y2238189D2*
X1067394D1*
X1286771D2*
X1298262D1*
X1383135D2*
X1619713D1*
X2047752D2*
X2058258D1*
X1001553Y2222572D2*
X1067394D1*
X1286771D2*
X1298508D1*
X1382889D2*
X1619713D1*
X2047752D2*
X2058258D1*
X1001553Y2206955D2*
X1067394D1*
X1286771D2*
X1305306D1*
X1376092D2*
X2058258D1*
X1001553Y2191339D2*
X1067394D1*
X1286771D2*
X1326959D1*
X1354438D2*
X2058258D1*
X1001553Y2175722D2*
X1067394D1*
X1286771D2*
X2058258D1*
X1001553Y2160105D2*
X1067394D1*
X1286771D2*
X2058258D1*
X1001553Y2144488D2*
X2058258D1*
X1001553Y2128871D2*
X2058258D1*
X1001553Y2113255D2*
X1249326D1*
X1319528D2*
X1549339D1*
X1619510D2*
X1676984D1*
X1729285D2*
X1976996D1*
X2029266D2*
X2058258D1*
X1001553Y2097638D2*
X1076990D1*
X1331616D2*
X1537220D1*
X1631628D2*
X1659636D1*
X1746601D2*
X1959649D1*
X2046614D2*
X2058258D1*
X1001553Y2082021D2*
X1076990D1*
X1336506D2*
X1532330D1*
X1636519D2*
X1652347D1*
X1753922D2*
X1952359D1*
X1001553Y2066404D2*
X1076990D1*
X1336322D2*
X1532514D1*
X1636334D2*
X1650563D1*
X1755675D2*
X1950575D1*
X1001553Y2050787D2*
X1076990D1*
X1229438D2*
X1237823D1*
X1331032D2*
X1537804D1*
X1631013D2*
X1653731D1*
X1752537D2*
X1953712D1*
X1050581Y2035171D2*
X1076990D1*
X1229438D2*
X1250680D1*
X1318144D2*
X1550692D1*
X1618156D2*
X1662958D1*
X1743310D2*
X1962940D1*
X2043292D2*
X2058258D1*
X1061962Y2019554D2*
X1076990D1*
X1229438D2*
X1258369D1*
X1310485D2*
X1531837D1*
X1637011D2*
X1687257D1*
X1718981D2*
X1950544D1*
X1066668Y2003937D2*
X1076990D1*
X1229438D2*
X1240960D1*
X1327864D2*
X1531837D1*
X1637011D2*
X1664804D1*
X1741434D2*
X1950544D1*
X1066514Y1988320D2*
X1076990D1*
X1335184D2*
X1531837D1*
X1637011D2*
X1654531D1*
X1751738D2*
X1950544D1*
X1336968Y1972703D2*
X1531837D1*
X1637011D2*
X1650686D1*
X1755552D2*
X1950544D1*
X1343273Y1957087D2*
X1531837D1*
X1637011D2*
X1651824D1*
X1754414D2*
X1950544D1*
X1229438Y1941470D2*
X1244190D1*
X1358898D2*
X1531837D1*
X1747955D2*
X1950544D1*
X1229438Y1925853D2*
X1268396D1*
X1374523D2*
X1531837D1*
X1732668D2*
X1950544D1*
X1229438Y1910236D2*
X1307797D1*
X1390117D2*
X1595322D1*
X1683517D2*
X2058258D1*
X1229438Y1894619D2*
X1323422D1*
X1405742D2*
X1599197D1*
X1682133D2*
X2058258D1*
X1192775Y1879003D2*
X1339047D1*
X1421367D2*
X1607625D1*
X1673705D2*
X1907268D1*
X1961260D2*
X2058258D1*
X1196281Y1863386D2*
X1354672D1*
X1436992D2*
X1515136D1*
X1973717D2*
X2058258D1*
X1193667Y1847769D2*
X1370266D1*
X1449757D2*
X1499511D1*
X1977501D2*
X2058258D1*
X1183302Y1832152D2*
X1385891D1*
X1452002D2*
X1483917D1*
X1975163D2*
X2058258D1*
X1326879Y1816535D2*
X1392873D1*
X1452002D2*
X1468292D1*
X2032496Y1722835D2*
X2058258D1*
X2032496Y1707218D2*
X2058258D1*
X2032496Y1691601D2*
X2058258D1*
X2032496Y1675984D2*
X2058258D1*
X2039262Y1660367D2*
X2058258D1*
X1953356Y1301181D2*
X1974136D1*
X2049013D2*
X2058258D1*
X1953356Y1285564D2*
X2058258D1*
X1953356Y1269948D2*
X2058258D1*
X1953356Y1254331D2*
X2058258D1*
X1953356Y1238714D2*
X2058258D1*
X1953356Y1223097D2*
X2058258D1*
X1953356Y1207480D2*
X2058258D1*
X1953356Y1191864D2*
X2058258D1*
X1953356Y1176247D2*
X2058258D1*
X1953356Y1160630D2*
X2058258D1*
X1953356Y1145013D2*
X1971460D1*
X2022315D2*
X2058258D1*
X2040093Y1129396D2*
X2058258D1*
X2047567Y1113780D2*
X2058258D1*
X2049443Y1098163D2*
X2058258D1*
X2046429Y1082546D2*
X2058258D1*
X2037386Y1066929D2*
X2058258D1*
X1876984Y1051312D2*
X1894227D1*
X2014010D2*
X2058258D1*
X1865726Y1035696D2*
X1894227D1*
X2034833D2*
X2058258D1*
X1866865Y1020079D2*
X1894227D1*
X2045322D2*
X2058258D1*
X1861820Y1004462D2*
X1894227D1*
X2049259D2*
X2058258D1*
X1849117Y988845D2*
X1894227D1*
X2048274D2*
X2058258D1*
X1861789Y973228D2*
X1894227D1*
X2041938D2*
X2058258D1*
X1863973Y957612D2*
X1898840D1*
X2026990D2*
X2058258D1*
X1863973Y941995D2*
X1913635D1*
X2027298D2*
X2058258D1*
X1863973Y926378D2*
X1929260D1*
X2042061D2*
X2058258D1*
X1863973Y910761D2*
X1944854D1*
X2048305D2*
X2058258D1*
X1863973Y895144D2*
X1944516D1*
X2049259D2*
X2058258D1*
X1863973Y879528D2*
X1948514D1*
X2045229D2*
X2058258D1*
X1863973Y863911D2*
X1959157D1*
X2034618D2*
X2058258D1*
X1863973Y848294D2*
X1944270D1*
X2049474D2*
X2058258D1*
X1863973Y832677D2*
X1944270D1*
X2049474D2*
X2058258D1*
X1863973Y817060D2*
X1944270D1*
X2049474D2*
X2058258D1*
X1863973Y801444D2*
X1944270D1*
X2049474D2*
X2058258D1*
X1863973Y785827D2*
X1944270D1*
X2049474D2*
X2058258D1*
X1863973Y770210D2*
X1944270D1*
X2049474D2*
X2058258D1*
X1877138Y754593D2*
X1944270D1*
X2049474D2*
X2058258D1*
X1892732Y738976D2*
X2058258D1*
X1908357Y723360D2*
X2058258D1*
X1923982Y707743D2*
X2058258D1*
X1939607Y692126D2*
X2058258D1*
X1714675Y676509D2*
X1729826D1*
X1955201D2*
X2058258D1*
X1699050Y660892D2*
X1729826D1*
X1970826D2*
X2058258D1*
X1683425Y645276D2*
X1729826D1*
X1986451D2*
X2058258D1*
X1663709Y629659D2*
X1671632D1*
X1627230Y614042D2*
X1661051D1*
X1611605Y598425D2*
X1657022D1*
X1595980Y582808D2*
X1657975D1*
X1580355Y567192D2*
X1664219D1*
X1564761Y551575D2*
X1679045D1*
X1609667Y535958D2*
X1679260D1*
X2039570D2*
X2058258D1*
X1620309Y520341D2*
X1664312D1*
X1624339Y504724D2*
X1658006D1*
X1623385Y489108D2*
X1657022D1*
X1417154Y473491D2*
X1426738D1*
X1517178D2*
X1526752D1*
X1617172D2*
X1660990D1*
X1324542Y457874D2*
X1341508D1*
X1402421D2*
X1441502D1*
X1502414D2*
X1541495D1*
X1602408D2*
X1671509D1*
X1747339D2*
X1771503D1*
X1847333D2*
X1871497D1*
X1947327D2*
X1971491D1*
X2047321D2*
X2058258D1*
X1236697Y442257D2*
X2058258D1*
X1238992Y1832079D2*
X1325291D1*
Y1741189D1*
X1330152Y1737617D1*
X1334756Y1733013D1*
X1336025Y1731403D1*
X1336029Y1740543D1*
X1394438D1*
X1393588Y1746764D1*
X1336029D1*
Y1815346D1*
X1394451D1*
X1394449Y1825191D1*
X1294794Y1924827D1*
X1288426Y1923918D1*
X1280419D1*
X1272511Y1925171D1*
X1264897Y1927645D1*
X1257763Y1931280D1*
X1251285Y1935986D1*
X1245624Y1941648D1*
X1240918Y1948125D1*
X1237283Y1955259D1*
X1234809Y1962874D1*
X1233556Y1970782D1*
Y1978788D1*
X1234809Y1986696D1*
X1237283Y1994311D1*
X1240918Y2001445D1*
X1245624Y2007922D1*
X1251285Y2013583D1*
X1257763Y2018290D1*
X1264897Y2021924D1*
X1272511Y2024399D1*
X1274338Y2024762D1*
X1268764Y2026223D1*
X1262903Y2028521D1*
X1257370Y2031523D1*
X1252249Y2035184D1*
X1247617Y2039447D1*
X1243545Y2044249D1*
X1240096Y2049515D1*
X1237322Y2055166D1*
X1235264Y2061115D1*
X1233955Y2067273D1*
X1233414Y2073545D1*
X1233650Y2079835D1*
X1234658Y2086049D1*
X1236424Y2092092D1*
X1238920Y2097871D1*
X1242110Y2103298D1*
X1245943Y2108292D1*
X1250362Y2112775D1*
X1255300Y2116681D1*
X1260680Y2119948D1*
X1266423Y2122528D1*
X1272439Y2124381D1*
X1278638Y2125479D1*
X1284924Y2125806D1*
X1291203Y2125356D1*
X1297379Y2124136D1*
X1303358Y2122165D1*
X1309048Y2119472D1*
X1314364Y2116100D1*
X1319224Y2112098D1*
X1323554Y2107529D1*
X1327288Y2102461D1*
X1330370Y2096971D1*
X1332752Y2091145D1*
X1334399Y2085069D1*
X1335285Y2078836D1*
X1335422Y2073210D1*
X1334840Y2066942D1*
X1333490Y2060793D1*
X1331394Y2054857D1*
X1328582Y2049225D1*
X1325099Y2043981D1*
X1320996Y2039207D1*
X1316336Y2034974D1*
X1311191Y2031347D1*
X1305638Y2028381D1*
X1299762Y2026122D1*
X1294576Y2024788D1*
X1300190Y2023311D1*
X1307587Y2020247D1*
X1314414Y2016064D1*
X1320502Y2010864D1*
X1325702Y2004776D1*
X1329885Y1997949D1*
X1332949Y1990552D1*
X1334818Y1982767D1*
X1335446Y1974785D1*
X1334818Y1966803D1*
X1334351Y1964455D1*
X1443726Y1854946D1*
X1446308Y1851392D1*
X1448302Y1847479D1*
X1449660Y1843301D1*
X1450347Y1838963D1*
X1450433Y1797120D1*
X1520697Y1867249D1*
X1524251Y1869831D1*
X1528164Y1871825D1*
X1532342Y1873182D1*
X1536680Y1873869D1*
X1593995Y1873955D1*
X1614326D1*
X1609113Y1879092D1*
X1605285Y1884360D1*
X1602329Y1890162D1*
X1600317Y1896355D1*
X1599299Y1902786D1*
X1599243Y1907886D1*
X1583356Y1923766D1*
X1533399Y1923761D1*
Y2025808D1*
X1570093D1*
X1564341Y2027879D1*
X1558718Y2030709D1*
X1553486Y2034210D1*
X1548725Y2038328D1*
X1544507Y2043002D1*
X1540897Y2048159D1*
X1537950Y2053721D1*
X1535709Y2059605D1*
X1534211Y2065719D1*
X1533477Y2071971D1*
X1533518Y2078266D1*
X1534334Y2084508D1*
X1535913Y2090602D1*
X1538230Y2096456D1*
X1541250Y2101979D1*
X1544927Y2107088D1*
X1549206Y2111706D1*
X1554021Y2115762D1*
X1559298Y2119194D1*
X1564958Y2121950D1*
X1570914Y2123988D1*
X1577076Y2125277D1*
X1583350Y2125797D1*
X1589640Y2125541D1*
X1595850Y2124512D1*
X1601887Y2122727D1*
X1607658Y2120211D1*
X1613075Y2117004D1*
X1618056Y2113154D1*
X1622525Y2108721D1*
X1626414Y2103770D1*
X1629663Y2098379D1*
X1632224Y2092628D1*
X1634058Y2086606D1*
X1635136Y2080404D1*
X1635446Y2074785D1*
X1635058Y2068502D1*
X1633899Y2062314D1*
X1631986Y2056316D1*
X1629350Y2050600D1*
X1626030Y2045251D1*
X1622076Y2040352D1*
X1617550Y2035978D1*
X1612519Y2032193D1*
X1607060Y2029058D1*
X1601257Y2026618D1*
X1598707Y2025807D1*
X1635446Y2025808D1*
Y1950851D1*
X1638819Y1947477D1*
X1643922Y1947410D1*
X1650354Y1946392D1*
X1656547Y1944379D1*
X1658754Y1943362D1*
X1655989Y1949010D1*
X1653515Y1956624D1*
X1652262Y1964532D1*
Y1972539D1*
X1653515Y1980447D1*
X1655989Y1988061D1*
X1659624Y1995195D1*
X1664330Y2001673D1*
X1669991Y2007334D1*
X1676469Y2012040D1*
X1683603Y2015675D1*
X1691217Y2018149D1*
X1693044Y2018513D1*
X1687470Y2019974D1*
X1681609Y2022272D1*
X1676076Y2025274D1*
X1670955Y2028934D1*
X1666323Y2033198D1*
X1662251Y2037999D1*
X1658802Y2043265D1*
X1656028Y2048916D1*
X1653970Y2054866D1*
X1652661Y2061023D1*
X1652120Y2067295D1*
X1652356Y2073586D1*
X1653364Y2079800D1*
X1655130Y2085842D1*
X1657626Y2091621D1*
X1660816Y2097049D1*
X1664649Y2102043D1*
X1669068Y2106526D1*
X1674006Y2110431D1*
X1679386Y2113699D1*
X1685129Y2116279D1*
X1691145Y2118132D1*
X1697344Y2119230D1*
X1703630Y2119557D1*
X1709909Y2119106D1*
X1716085Y2117887D1*
X1722064Y2115915D1*
X1727754Y2113223D1*
X1733070Y2109850D1*
X1737930Y2105849D1*
X1742260Y2101279D1*
X1745994Y2096211D1*
X1749076Y2090722D1*
X1751458Y2084895D1*
X1753105Y2078819D1*
X1753991Y2072587D1*
X1754128Y2066961D1*
X1753546Y2060693D1*
X1752196Y2054544D1*
X1750100Y2048608D1*
X1747288Y2042975D1*
X1743805Y2037732D1*
X1739702Y2032957D1*
X1735042Y2028724D1*
X1729897Y2025097D1*
X1724344Y2022132D1*
X1718468Y2019872D1*
X1713282Y2018538D1*
X1718896Y2017062D1*
X1726293Y2013998D1*
X1733120Y2009814D1*
X1739208Y2004615D1*
X1744408Y1998526D1*
X1748591Y1991700D1*
X1751655Y1984303D1*
X1753524Y1976517D1*
X1754152Y1968535D1*
X1753524Y1960554D1*
X1751655Y1952768D1*
X1748591Y1945371D1*
X1744408Y1938545D1*
X1739208Y1932456D1*
X1733120Y1927256D1*
X1726293Y1923073D1*
X1718896Y1920009D1*
X1711110Y1918140D1*
X1703129Y1917512D1*
X1695147Y1918140D1*
X1687361Y1920009D1*
X1679964Y1923073D1*
X1677984Y1924182D1*
X1680132Y1918865D1*
X1681652Y1912533D1*
X1682163Y1906042D1*
X1681652Y1899551D1*
X1680132Y1893219D1*
X1677640Y1887203D1*
X1674238Y1881651D1*
X1670009Y1876700D1*
X1666947Y1873960D1*
X1903388Y1873955D1*
X1907196Y1877662D1*
X1912488Y1881507D1*
X1918316Y1884476D1*
X1924538Y1886498D1*
X1930998Y1887521D1*
X1937540D1*
X1944001Y1886498D1*
X1950222Y1884476D1*
X1956050Y1881507D1*
X1961342Y1877662D1*
X1965968Y1873036D1*
X1969812Y1867744D1*
X1972782Y1861916D1*
X1974804Y1855695D1*
X1975827Y1849234D1*
Y1842693D1*
X1974804Y1836232D1*
X1973548Y1832086D1*
X2050026Y1832079D1*
Y1730031D1*
X2030926D1*
X2030932Y1663468D1*
X2036513Y1660976D1*
X2043867Y1656469D1*
X2050425Y1650868D1*
X2056026Y1644310D1*
X2059848Y1638178D1*
X2059842Y2659812D1*
X2046155Y2659842D1*
X2046162Y2217249D1*
X1621280D1*
Y2659837D1*
X1291419Y2659842D1*
X1291449Y2627702D1*
X1330398Y2627622D1*
X1334737Y2626935D1*
X1338914Y2625578D1*
X1342828Y2623584D1*
X1346382Y2621002D1*
X1373029Y2594477D1*
X1527441Y2594496D1*
Y2492449D1*
X1465710D1*
X1467654Y2487555D1*
X1469174Y2481224D1*
X1469685Y2474732D1*
X1469174Y2468241D1*
X1467654Y2461909D1*
X1465162Y2455893D1*
X1461760Y2450342D1*
X1457531Y2445390D1*
X1452580Y2441161D1*
X1447028Y2437759D1*
X1441012Y2435267D1*
X1434680Y2433747D1*
X1428189Y2433236D1*
X1421698Y2433747D1*
X1415366Y2435267D1*
X1409350Y2437759D1*
X1403798Y2441161D1*
X1398847Y2445390D1*
X1394618Y2450342D1*
X1391216Y2455893D1*
X1388724Y2461909D1*
X1387204Y2468241D1*
X1386693Y2474732D1*
X1387204Y2481224D1*
X1388724Y2487555D1*
X1390699Y2492450D1*
X1331114Y2492449D1*
X1325388Y2490627D1*
X1318957Y2489608D1*
X1313857Y2489553D1*
X1291452Y2467141D1*
X1291449Y2430071D1*
X1328913Y2392616D1*
X1328917Y2394493D1*
X1527421D1*
Y2292446D1*
X1416724D1*
X1376430Y2252144D1*
X1379036Y2246888D1*
X1381048Y2240695D1*
X1382066Y2234264D1*
Y2227752D1*
X1381048Y2221321D1*
X1379036Y2215128D1*
X1376079Y2209326D1*
X1372252Y2204058D1*
X1367648Y2199454D1*
X1362380Y2195627D1*
X1356578Y2192671D1*
X1350385Y2190658D1*
X1343954Y2189640D1*
X1337442D1*
X1331011Y2190658D1*
X1324818Y2192671D1*
X1319017Y2195627D1*
X1313749Y2199454D1*
X1309144Y2204058D1*
X1305317Y2209326D1*
X1302361Y2215128D1*
X1300349Y2221321D1*
X1299330Y2227752D1*
Y2234264D1*
X1300349Y2240695D1*
X1302361Y2246888D1*
X1305317Y2252690D1*
X1309144Y2257957D1*
X1313422Y2262259D1*
X1314837Y2266711D1*
X1316831Y2270625D1*
X1319413Y2274178D1*
X1337543Y2292430D1*
X1328917Y2292446D1*
Y2317145D1*
X1325757Y2318533D1*
X1323919Y2318174D1*
X1321427Y2312159D1*
X1318025Y2306607D1*
X1313796Y2301655D1*
X1308845Y2297426D1*
X1303293Y2294024D1*
X1297277Y2291532D1*
X1290945Y2290012D1*
X1285204Y2289531D1*
X1285200Y2156362D1*
X1179215D1*
Y2305653D1*
X1219539D1*
X1243015Y2329145D1*
X1243086Y2334253D1*
X1244105Y2340684D1*
X1246117Y2346877D1*
X1249073Y2352679D1*
X1252900Y2357947D1*
X1257505Y2362551D1*
X1262772Y2366379D1*
X1267499Y2368839D1*
X1185465Y2368840D1*
Y2518131D1*
X1263251D1*
X1270187Y2525049D1*
X1185465Y2525071D1*
Y2659821D1*
X1181213Y2658614D1*
Y2525071D1*
X1075228D1*
Y2659846D1*
X895196Y2659842D1*
X910281Y2644768D1*
X946630Y2644790D1*
Y2517152D1*
X934419D1*
X934425Y2416447D1*
X991906Y2416443D1*
Y2288806D1*
X966284D1*
X993272Y2261686D1*
X995854Y2258132D1*
X997848Y2254219D1*
X999206Y2250041D1*
X999893Y2245703D1*
X999979Y2188388D1*
Y2048901D1*
X1004314Y2049001D1*
X1012604Y2049654D1*
X1020893Y2049001D1*
X1028979Y2047060D1*
X1036662Y2043878D1*
X1043752Y2039533D1*
X1050075Y2034133D1*
X1055475Y2027809D1*
X1059820Y2020719D1*
X1063002Y2013037D1*
X1064943Y2004951D1*
X1065596Y1996661D1*
X1064943Y1988372D1*
X1064205Y1984657D1*
X1078571Y1970282D1*
X1078572Y1992533D1*
X1227864D1*
Y1886548D1*
X1186863D1*
X1190191Y1881135D1*
X1192683Y1875120D1*
X1194203Y1868788D1*
X1194714Y1862297D1*
X1194203Y1855805D1*
X1192683Y1849474D1*
X1190191Y1843458D1*
X1186789Y1837906D1*
X1182560Y1832954D1*
X1181616Y1832082D1*
X1238992Y1832079D1*
X1076803Y2518131D2*
X1181213D1*
Y2368840D1*
X1075229D1*
Y2518131D1*
X1076803D1*
X1080147Y2102769D2*
X1227864D1*
Y1996785D1*
X1078572D1*
Y2102769D1*
X1080147D1*
X1070554Y2305653D2*
X1174963D1*
Y2156362D1*
X1068979D1*
Y2305653D1*
X1070554D1*
X1985422Y644714D2*
X2059813D1*
X2059842Y1311694D1*
X2054159Y1306224D1*
X2050115Y1303036D1*
X2045833Y1300175D1*
X2041339Y1297658D1*
X2036662Y1295502D1*
X2031830Y1293719D1*
X2026873Y1292321D1*
X2021822Y1291317D1*
X2016708Y1290711D1*
X2011562Y1290509D1*
X2006416Y1290711D1*
X2001301Y1291317D1*
X1996250Y1292321D1*
X1991293Y1293719D1*
X1986461Y1295502D1*
X1981784Y1297658D1*
X1977291Y1300175D1*
X1973009Y1303036D1*
X1968964Y1306224D1*
X1965182Y1309720D1*
X1961686Y1313502D1*
X1958498Y1317547D1*
X1955637Y1321829D1*
X1951781Y1329227D1*
X1951777Y1123771D1*
X1955600Y1129899D1*
X1960800Y1135987D1*
X1966888Y1141187D1*
X1973715Y1145371D1*
X1981112Y1148434D1*
X1988897Y1150304D1*
X1996879Y1150932D1*
X2004861Y1150304D1*
X2012646Y1148434D1*
X2020044Y1145371D1*
X2026870Y1141187D1*
X2032958Y1135987D1*
X2038158Y1129899D1*
X2042342Y1123072D1*
X2045406Y1115675D1*
X2047275Y1107890D1*
X2047903Y1099908D1*
X2047275Y1091926D1*
X2045406Y1084141D1*
X2042342Y1076744D1*
X2038158Y1069917D1*
X2032958Y1063829D1*
X2026870Y1058629D1*
X2020044Y1054446D1*
X2012646Y1051382D1*
X2006964Y1049931D1*
X2012646Y1048434D1*
X2020044Y1045371D1*
X2026870Y1041187D1*
X2032958Y1035987D1*
X2038158Y1029899D1*
X2042342Y1023072D1*
X2045406Y1015675D1*
X2047275Y1007890D1*
X2047903Y999908D1*
X2047275Y991926D1*
X2045406Y984141D1*
X2042342Y976744D1*
X2038158Y969917D1*
X2032958Y963829D1*
X2026870Y958629D1*
X2020044Y954446D1*
X2012646Y951382D1*
X2006964Y949931D1*
X2012646Y948434D1*
X2020044Y945371D1*
X2026870Y941187D1*
X2032958Y935987D1*
X2038158Y929899D1*
X2042342Y923072D1*
X2045406Y915675D1*
X2047275Y907890D1*
X2047903Y899908D1*
X2047275Y891926D1*
X2045406Y884141D1*
X2042342Y876744D1*
X2038158Y869917D1*
X2032958Y863829D1*
X2026870Y858629D1*
X2020044Y854446D1*
X2012646Y851382D1*
X2011065Y850936D1*
X2047903Y850932D1*
Y748884D1*
X1945856D1*
Y850932D1*
X1982575D1*
X1977353Y852768D1*
X1970219Y856403D1*
X1963742Y861109D1*
X1958081Y866771D1*
X1953374Y873248D1*
X1949740Y880382D1*
X1947265Y887997D1*
X1946013Y895905D1*
Y903911D1*
X1946951Y910238D1*
X1902499Y954823D1*
X1899917Y958377D1*
X1897923Y962290D1*
X1896566Y966468D1*
X1895879Y970806D1*
X1895793Y1028121D1*
Y1071705D1*
X1865075Y1041095D1*
X1863341Y1039730D1*
X1863536Y1037766D1*
X1865063Y1031406D1*
X1865576Y1024885D1*
X1865063Y1018363D1*
X1863536Y1012003D1*
X1861033Y1005959D1*
X1857615Y1000382D1*
X1853366Y995408D1*
X1848392Y991160D1*
X1846489Y989888D1*
X1855682Y980571D1*
X1858264Y977017D1*
X1860258Y973103D1*
X1861615Y968926D1*
X1862302Y964587D1*
X1862389Y907273D1*
Y767786D1*
X1985446Y644700D1*
X2059849Y542667D2*
X2023883Y542618D1*
X2029798Y540463D1*
X2035403Y537597D1*
X2040611Y534062D1*
X2045345Y529912D1*
X2049532Y525211D1*
X2053109Y520030D1*
X2056020Y514449D1*
X2058221Y508551D1*
X2059680Y502427D1*
X2059842Y501400D1*
Y542686D1*
X2059843Y485963D2*
X2058477Y479699D1*
X2056381Y473763D1*
X2053569Y468130D1*
X2050086Y462887D1*
X2045983Y458112D1*
X2041323Y453879D1*
X2036178Y450252D1*
X2030625Y447287D1*
X2024749Y445027D1*
X2018640Y443509D1*
X2012390Y442754D1*
X2006095Y442774D1*
X1999850Y443570D1*
X1993751Y445129D1*
X1987890Y447427D1*
X1982357Y450429D1*
X1977235Y454089D1*
X1972604Y458353D1*
X1968532Y463154D1*
X1965083Y468420D1*
X1962309Y474071D1*
X1960251Y480021D1*
X1959412Y483532D1*
X1957521Y476698D1*
X1955062Y470903D1*
X1951908Y465455D1*
X1948108Y460436D1*
X1943718Y455924D1*
X1938807Y451986D1*
X1933447Y448684D1*
X1927722Y446066D1*
X1921718Y444174D1*
X1915527Y443035D1*
X1909242Y442667D1*
X1902960Y443076D1*
X1896777Y444255D1*
X1890785Y446187D1*
X1885077Y448842D1*
X1879740Y452180D1*
X1874854Y456150D1*
X1870494Y460691D1*
X1866726Y465734D1*
X1863609Y471203D1*
X1861188Y477014D1*
X1859412Y483532D1*
X1857521Y476698D1*
X1855062Y470903D1*
X1851908Y465455D1*
X1848108Y460436D1*
X1843718Y455924D1*
X1838807Y451986D1*
X1833447Y448684D1*
X1827722Y446066D1*
X1821718Y444174D1*
X1815527Y443035D1*
X1809242Y442667D1*
X1802960Y443076D1*
X1796777Y444255D1*
X1790785Y446187D1*
X1785077Y448842D1*
X1779740Y452180D1*
X1774854Y456150D1*
X1770494Y460691D1*
X1766726Y465734D1*
X1763609Y471203D1*
X1761188Y477014D1*
X1759412Y483532D1*
X1757521Y476698D1*
X1755062Y470903D1*
X1751908Y465455D1*
X1748108Y460436D1*
X1743718Y455924D1*
X1738807Y451986D1*
X1733447Y448684D1*
X1727722Y446066D1*
X1721718Y444174D1*
X1715527Y443035D1*
X1709242Y442667D1*
X1702960Y443076D1*
X1696777Y444255D1*
X1690785Y446187D1*
X1685077Y448842D1*
X1679740Y452180D1*
X1674854Y456150D1*
X1670494Y460691D1*
X1666726Y465734D1*
X1663609Y471203D1*
X1661188Y477014D1*
X1659501Y483079D1*
X1658575Y489306D1*
X1658422Y495599D1*
X1659045Y501863D1*
X1660434Y508003D1*
X1662570Y513925D1*
X1665418Y519539D1*
X1668936Y524760D1*
X1673070Y529507D1*
X1677757Y533710D1*
X1682926Y537303D1*
X1688499Y540232D1*
X1694389Y542453D1*
X1699246Y543688D1*
X1693642Y545164D1*
X1686245Y548228D1*
X1679419Y552411D1*
X1673330Y557611D1*
X1668130Y563699D1*
X1663947Y570526D1*
X1660883Y577923D1*
X1659014Y585708D1*
X1658386Y593690D1*
X1659014Y601672D1*
X1660883Y609457D1*
X1663947Y616855D1*
X1668130Y623681D1*
X1673330Y629769D1*
X1679419Y634969D1*
X1686245Y639153D1*
X1693642Y642217D1*
X1701428Y644086D1*
X1709409Y644714D1*
X1717391Y644086D1*
X1725177Y642217D1*
X1731422Y639683D1*
X1731248Y694669D1*
X1671345Y634888D1*
X1667791Y632306D1*
X1663878Y630312D1*
X1659700Y628954D1*
X1655362Y628267D1*
X1639786Y628181D1*
X1561508Y549882D1*
X1567738Y550789D1*
X1574031Y550921D1*
X1580294Y550277D1*
X1586429Y548867D1*
X1592344Y546713D1*
X1597948Y543846D1*
X1603157Y540311D1*
X1607891Y536161D1*
X1612078Y531460D1*
X1615655Y526280D1*
X1618566Y520698D1*
X1620767Y514800D1*
X1622225Y508676D1*
X1622919Y502419D1*
X1622882Y496792D1*
X1622107Y490545D1*
X1620568Y484440D1*
X1618289Y478572D1*
X1615305Y473029D1*
X1611662Y467896D1*
X1607413Y463250D1*
X1602625Y459163D1*
X1597371Y455696D1*
X1591729Y452903D1*
X1585786Y450826D1*
X1579633Y449497D1*
X1573363Y448935D1*
X1567071Y449150D1*
X1560854Y450138D1*
X1554806Y451884D1*
X1549019Y454362D1*
X1543581Y457533D1*
X1538575Y461350D1*
X1534077Y465755D1*
X1530155Y470679D1*
X1526870Y476050D1*
X1524271Y481783D1*
X1522399Y487793D1*
X1521958Y489781D1*
X1520482Y484172D1*
X1517418Y476775D1*
X1513234Y469949D1*
X1508035Y463860D1*
X1501946Y458661D1*
X1495120Y454477D1*
X1487723Y451413D1*
X1479937Y449544D1*
X1471955Y448916D1*
X1463974Y449544D1*
X1456188Y451413D1*
X1448791Y454477D1*
X1441964Y458661D1*
X1435876Y463860D1*
X1430676Y469949D1*
X1426493Y476775D1*
X1423429Y484172D1*
X1421978Y489855D1*
X1420482Y484172D1*
X1417418Y476775D1*
X1413234Y469949D1*
X1408035Y463860D1*
X1401946Y458661D1*
X1395120Y454477D1*
X1387723Y451413D1*
X1379937Y449544D1*
X1371955Y448916D1*
X1363974Y449544D1*
X1356188Y451413D1*
X1348791Y454477D1*
X1341964Y458661D1*
X1335876Y463860D1*
X1330676Y469949D1*
X1326493Y476775D1*
X1323429Y484172D1*
X1322983Y485754D1*
X1322979Y448916D1*
X1241809D1*
X1220454Y427579D1*
X2059849Y427559D1*
X2059842Y485968D1*
X958362Y2644790D2*
X1037181D1*
Y2517152D1*
X956787D1*
Y2644790D1*
X958362D1*
X1959979Y2019559D2*
X1988799D1*
X1983047Y2021630D1*
X1977424Y2024460D1*
X1972192Y2027960D1*
X1967431Y2032079D1*
X1963213Y2036752D1*
X1959603Y2041910D1*
X1956656Y2047472D1*
X1954415Y2053355D1*
X1952917Y2059469D1*
X1952183Y2065722D1*
X1952224Y2072017D1*
X1953040Y2078259D1*
X1954619Y2084353D1*
X1956936Y2090206D1*
X1959956Y2095730D1*
X1963633Y2100839D1*
X1967912Y2105457D1*
X1972727Y2109513D1*
X1978004Y2112944D1*
X1983664Y2115700D1*
X1989620Y2117738D1*
X1995782Y2119027D1*
X2002056Y2119548D1*
X2008346Y2119292D1*
X2014556Y2118263D1*
X2020593Y2116477D1*
X2026364Y2113962D1*
X2031781Y2110755D1*
X2036762Y2106905D1*
X2041231Y2102471D1*
X2045120Y2097521D1*
X2048369Y2092129D1*
X2050931Y2086379D1*
X2052764Y2080357D1*
X2053842Y2074154D1*
X2054152Y2068535D1*
X2053764Y2062252D1*
X2052605Y2056065D1*
X2050692Y2050067D1*
X2048056Y2044350D1*
X2044736Y2039002D1*
X2040782Y2034103D1*
X2036256Y2029728D1*
X2031225Y2025944D1*
X2025766Y2022808D1*
X2019963Y2020369D1*
X2017413Y2019558D1*
X2054152Y2019559D1*
Y1917512D1*
X1952105D1*
Y2019559D1*
X1959979D1*
X1128220Y2599717D2*
D14*
X1181195Y2525096D1*
X1128220Y2599717D2*
X1075246Y2525096D1*
Y2518106D2*
X1181195Y2368865D1*
Y2518106D2*
X1075246Y2368865D1*
X1078597Y2102751D2*
X1227839Y1996802D1*
Y2102751D2*
X1078597Y1996802D1*
X1068997Y2305628D2*
X1174946Y2156387D1*
Y2305628D2*
X1068997Y2156387D1*
X2009409Y493690D2*
D15*
Y442697D1*
Y493690D2*
X2060402D1*
X1909409D2*
Y442697D1*
X1809409Y493690D2*
Y442697D1*
X1709409Y493690D2*
Y442697D1*
X1658417Y493690D2*
X1709409D1*
X1996879Y799908D2*
Y748915D1*
X1945887Y799908D2*
X2047872D1*
X1336053Y1815327D2*
D14*
X1378194Y1781055D1*
X1336053Y1746783D1*
X1571955Y550932D2*
D15*
Y448947D1*
Y499940D2*
X1622948D1*
X956804Y2644764D2*
D14*
X1037165Y2517178D1*
Y2644764D2*
X956804Y2517178D1*
X1833720Y2443470D2*
X2046141Y2217272D1*
X1833720Y2443470D2*
X1621301Y2217272D1*
X1584423Y2125778D2*
D15*
Y2074785D1*
X1533430D2*
X1635415D1*
X1284423Y2125778D2*
Y2074785D1*
X1233430D2*
X1335415D1*
X2003129Y2119528D2*
Y2068535D1*
X1952136D2*
X2054121D1*
X1703129Y2119528D2*
Y2068535D1*
X1652136D2*
X1754121D1*
D17*
X1284265Y1631071D3*
X1209462D3*
X1278205Y1781055D3*
X1203402D3*
X847000Y1193617D3*
X921803D3*
X1671913Y1362349D3*
X1746717D3*
D18*
X1128220Y2599717D3*
X1238457D3*
X1128220Y2443486D3*
X1238457D3*
D19*
X1153218Y2049777D3*
Y1939541D3*
D18*
X1121971Y2231008D3*
X1232207D3*
D20*
X1721908Y1537331D3*
Y1612134D3*
D22*
X1215711Y668672D3*
Y737570D3*
D23*
X1378349Y674921D3*
X1309451D3*
X903244Y1368598D3*
X834346D3*
D24*
X840751Y712417D3*
D25*
X940751D3*
X1040751D3*
D24*
X853249Y1037383D3*
D25*
X953249D3*
X1053249D3*
D26*
X2009409Y593690D3*
D27*
Y493690D3*
X1909409Y593690D3*
Y493690D3*
X1809409Y593690D3*
Y493690D3*
X1709409Y593690D3*
Y493690D3*
D26*
X1996879Y799908D3*
D27*
Y899908D3*
Y999908D3*
Y1099908D3*
D29*
X1378194Y1781055D3*
Y1706252D3*
X1468745Y1743654D3*
D17*
X1009483Y868651D3*
X1084286D3*
X903244Y881150D3*
X828441D3*
X841400Y1735432D3*
X916203D3*
X1640478Y1781055D3*
X1565675D3*
X1034480D3*
X1109283D3*
X1115722Y1193617D3*
X1040919D3*
D30*
X815753Y1996661D3*
D31*
X914178Y2193512D3*
X1012604Y1996661D3*
D17*
X840751Y1831050D3*
X915554D3*
X1928136Y1781055D3*
X2002940D3*
X1815459D3*
X1740656D3*
X1034480Y1631071D3*
X1109283D3*
D20*
X1753155Y1168619D3*
Y1243423D3*
D17*
X915743Y1518583D3*
X840940D3*
D26*
X670093Y1312349D3*
D27*
Y1412349D3*
D26*
Y1956037D3*
D27*
Y2056037D3*
Y2156037D3*
Y2256037D3*
D32*
X1834396Y1356100D3*
D33*
X2011562D3*
Y1612005D3*
X1834396D3*
D26*
X670093Y1837299D3*
D27*
Y1737299D3*
Y1637299D3*
Y1537299D3*
D26*
X1271955Y499940D3*
D27*
X1371955D3*
X1471955D3*
X1571955D3*
D35*
X1553176Y1168619D3*
X1533491D3*
X1513806D3*
X1494121D3*
X1474436D3*
X1454751D3*
X1435066D3*
X1415381D3*
X1395696D3*
X1376010D3*
X1356325D3*
X1336640D3*
D36*
X1279554Y1111533D3*
Y1091848D3*
Y1072163D3*
Y1052478D3*
Y1032793D3*
Y1013108D3*
Y993423D3*
Y973738D3*
Y954052D3*
Y934367D3*
Y914682D3*
Y894997D3*
D35*
X1336640Y837911D3*
X1356325D3*
X1376010D3*
X1395696D3*
X1415381D3*
X1435066D3*
X1454751D3*
X1474436D3*
X1494121D3*
X1513806D3*
X1533491D3*
X1553176D3*
D36*
X1610262Y894997D3*
Y914682D3*
Y934367D3*
Y954052D3*
Y973738D3*
Y993423D3*
Y1013108D3*
Y1032793D3*
Y1052478D3*
Y1072163D3*
Y1091848D3*
Y1111533D3*
D38*
X996984Y2580971D3*
X906433D3*
X815882D3*
D39*
X906433Y2352625D3*
D41*
X1428189Y2543472D3*
X1428169Y2343470D3*
D42*
X1833720Y2443470D3*
D26*
X815753Y499940D3*
D27*
X915753D3*
X1015753D3*
X1115753D3*
D26*
X1584423Y1974785D3*
D43*
Y2074785D3*
X1284423D3*
Y1974785D3*
D26*
X2003129Y1968535D3*
D43*
Y2068535D3*
X1703129D3*
Y1968535D3*
D45*
X1171966Y1406094D3*
X1506612D3*
M02*
