G04 DipTrace 3.1.0.1*
G04 mask-top.gbr*
%MOIN*%
G04 #@! TF.FileFunction,Soldermask,Top*
G04 #@! TF.Part,Single*
%ADD32R,0.066929X0.066929*%
%ADD33C,0.066929*%
%ADD48C,0.11811*%
%ADD55R,0.185039X0.066929*%
%ADD57C,0.066929*%
%ADD59R,0.389764X0.417323*%
%ADD61R,0.163386X0.066929*%
%ADD63R,0.135827X0.09252*%
%ADD65R,0.045276X0.09252*%
%ADD67R,0.070866X0.019685*%
%ADD69R,0.019685X0.070866*%
%ADD71C,0.074803*%
%ADD72R,0.074803X0.074803*%
%ADD73C,0.070866*%
%ADD75R,0.070866X0.070866*%
%ADD77R,0.049213X0.033465*%
%ADD81C,0.067874*%
%ADD83R,0.067874X0.067874*%
%ADD85R,0.041339X0.062992*%
%ADD87R,0.062992X0.041339*%
%ADD89R,0.066929X0.059055*%
%ADD91R,0.114173X0.070866*%
%ADD93R,0.070866X0.114173*%
%ADD95R,0.059055X0.066929*%
%FSLAX26Y26*%
G04*
G70*
G90*
G75*
G01*
G04 TopMask*
%LPD*%
D95*
X1284265Y1631071D3*
X1209462D3*
X1278205Y1781055D3*
X1203402D3*
X847000Y1193617D3*
X921803D3*
X1671913Y1362349D3*
X1746717D3*
D93*
X1128220Y2599717D3*
X1238457D3*
X1128220Y2443486D3*
X1238457D3*
D91*
X1153218Y2049777D3*
Y1939541D3*
D93*
X1121971Y2231008D3*
X1232207D3*
D89*
X1721908Y1537331D3*
Y1612134D3*
D87*
X1215711Y668672D3*
Y737570D3*
D85*
X1378349Y674921D3*
X1309451D3*
X903244Y1368598D3*
X834346D3*
D83*
X840751Y712417D3*
D81*
X940751D3*
X1040751D3*
D83*
X853249Y1037383D3*
D81*
X953249D3*
X1053249D3*
D32*
X2009409Y593690D3*
D33*
Y493690D3*
X1909409Y593690D3*
Y493690D3*
X1809409Y593690D3*
Y493690D3*
X1709409Y593690D3*
Y493690D3*
D32*
X1996879Y799908D3*
D33*
Y899908D3*
Y999908D3*
Y1099908D3*
D77*
X1378194Y1781055D3*
Y1706252D3*
X1468745Y1743654D3*
D95*
X1009483Y868651D3*
X1084286D3*
X903244Y881150D3*
X828441D3*
X841400Y1735432D3*
X916203D3*
X1640478Y1781055D3*
X1565675D3*
X1034480D3*
X1109283D3*
X1115722Y1193617D3*
X1040919D3*
D75*
X815753Y1996661D3*
D73*
X914178Y2193512D3*
X1012604Y1996661D3*
D95*
X840751Y1831050D3*
X915554D3*
X1928136Y1781055D3*
X2002940D3*
X1815459D3*
X1740656D3*
X1034480Y1631071D3*
X1109283D3*
D89*
X1753155Y1168619D3*
Y1243423D3*
D95*
X915743Y1518583D3*
X840940D3*
D32*
X670093Y1312349D3*
D33*
Y1412349D3*
D32*
Y1956037D3*
D33*
Y2056037D3*
Y2156037D3*
Y2256037D3*
D72*
X1834396Y1356100D3*
D71*
X2011562D3*
Y1612005D3*
X1834396D3*
D32*
X670093Y1837299D3*
D33*
Y1737299D3*
Y1637299D3*
Y1537299D3*
D32*
X1271955Y499940D3*
D33*
X1371955D3*
X1471955D3*
X1571955D3*
D69*
X1553176Y1168619D3*
X1533491D3*
X1513806D3*
X1494121D3*
X1474436D3*
X1454751D3*
X1435066D3*
X1415381D3*
X1395696D3*
X1376010D3*
X1356325D3*
X1336640D3*
D67*
X1279554Y1111533D3*
Y1091848D3*
Y1072163D3*
Y1052478D3*
Y1032793D3*
Y1013108D3*
Y993423D3*
Y973738D3*
Y954052D3*
Y934367D3*
Y914682D3*
Y894997D3*
D69*
X1336640Y837911D3*
X1356325D3*
X1376010D3*
X1395696D3*
X1415381D3*
X1435066D3*
X1454751D3*
X1474436D3*
X1494121D3*
X1513806D3*
X1533491D3*
X1553176D3*
D67*
X1610262Y894997D3*
Y914682D3*
Y934367D3*
Y954052D3*
Y973738D3*
Y993423D3*
Y1013108D3*
Y1032793D3*
Y1052478D3*
Y1072163D3*
Y1091848D3*
Y1111533D3*
D65*
X996984Y2580971D3*
X906433D3*
X815882D3*
D63*
X906433Y2352625D3*
D61*
X1428189Y2543472D3*
X1428169Y2343470D3*
D59*
X1833720Y2443470D3*
D32*
X815753Y499940D3*
D33*
X915753D3*
X1015753D3*
X1115753D3*
D32*
X1584423Y1974785D3*
D57*
Y2074785D3*
X1284423D3*
Y1974785D3*
D32*
X2003129Y1968535D3*
D57*
Y2068535D3*
X1703129D3*
Y1968535D3*
D55*
X1171966Y1406094D3*
X1506612D3*
D48*
X497631Y2581442D3*
Y495449D3*
M02*
