G04 DipTrace 3.1.0.1*
G04 silk-top.gbr*
%MOIN*%
G04 #@! TF.FileFunction,Legend,Top*
G04 #@! TF.Part,Single*
%ADD10C,0.009843*%
%ADD21C,0.005906*%
%ADD28C,0.015422*%
%ADD34C,0.015709*%
%ADD37C,0.015403*%
%ADD40C,0.015373*%
%ADD44O,0.024247X0.022106*%
%ADD97C,0.00772*%
%FSLAX26Y26*%
G04*
G70*
G90*
G75*
G01*
G04 TopSilk*
%LPD*%
X1325625Y1656642D2*
D10*
Y1605500D1*
X1319564Y1806626D2*
Y1755484D1*
X805640Y1168046D2*
Y1219188D1*
X1630554Y1336778D2*
Y1387920D1*
X1179008Y2550500D2*
Y2648933D1*
X1171559Y2550500D2*
Y2648933D1*
Y2550500D2*
X1195118D1*
X1171559Y2648933D2*
X1195118D1*
X1179008Y2394269D2*
Y2492702D1*
X1171559Y2394269D2*
Y2492702D1*
Y2394269D2*
X1195118D1*
X1171559Y2492702D2*
X1195118D1*
X1104001Y1998990D2*
X1202434D1*
X1104001Y2006438D2*
X1202434D1*
X1104001D2*
Y1982879D1*
X1202434Y2006438D2*
Y1982879D1*
X1172759Y2181791D2*
Y2280224D1*
X1165310Y2181791D2*
Y2280224D1*
Y2181791D2*
X1188869D1*
X1165310Y2280224D2*
X1188869D1*
X1747479Y1495971D2*
X1696337D1*
X1174373Y644066D2*
D21*
X1257050D1*
Y762176D1*
X1174373D1*
Y644066D1*
G36*
X1240713Y690625D2*
X1190710D1*
X1215711Y715617D1*
D1*
X1240713Y690625D1*
G37*
X1402955Y633583D2*
D21*
X1284845D1*
Y716260D1*
X1402955D1*
Y633583D1*
G36*
X1356396Y699923D2*
Y649920D1*
X1331404Y674921D1*
D1*
X1356396Y699923D1*
G37*
X927850Y1327260D2*
D21*
X809740D1*
Y1409937D1*
X927850D1*
Y1327260D1*
G36*
X881291Y1393600D2*
Y1343597D1*
X856299Y1368598D1*
D1*
X881291Y1393600D1*
G37*
X790751Y692417D2*
D10*
Y732417D1*
X1090751Y692417D2*
Y732417D1*
X815651Y762417D2*
X1065851D1*
X815651Y662417D2*
X1065851D1*
X790751Y687417D2*
X815651Y662417D1*
X790751Y737417D2*
X815651Y762417D1*
X1065851D2*
X1090751Y737417D1*
X1065851Y662417D2*
X1090751Y687417D1*
X803249Y1017383D2*
Y1057383D1*
X1103249Y1017383D2*
Y1057383D1*
X828149Y1087383D2*
X1078349D1*
X828149Y987383D2*
X1078349D1*
X803249Y1012383D2*
X828149Y987383D1*
X803249Y1062383D2*
X828149Y1087383D1*
X1078349D2*
X1103249Y1062383D1*
X1078349Y987383D2*
X1103249Y1012383D1*
X2059409Y643690D2*
X1659409D1*
X2059409Y443690D2*
X1659409D1*
X2059409Y643690D2*
Y443690D1*
X1659409Y643690D2*
Y443690D1*
X2046879Y1149908D2*
X1946879D1*
X2046879Y749908D2*
Y1149908D1*
X1946879Y749908D2*
Y1149908D1*
X2046879Y749908D2*
X1946879D1*
D28*
X1363485Y1811904D3*
X1413627Y1802703D2*
D10*
Y1684598D1*
X1433312D1*
Y1802703D1*
X1413627D1*
X788207Y2051769D2*
Y2221072D1*
X874812D1*
X953545D2*
X1040150D1*
Y2039962D1*
X981114Y1957291D2*
X862990D1*
X720093Y1462349D2*
X620093D1*
X720093Y1262349D2*
Y1462349D1*
Y1262349D2*
X620093D1*
Y1462349D1*
X720093Y2306037D2*
X620093D1*
X720093Y1906037D2*
Y2306037D1*
X620093Y1906037D2*
Y2306037D1*
X720093Y1906037D2*
X620093D1*
X1852118Y1484052D2*
G02X1852118Y1484052I70861J0D01*
G01*
X2041096Y1393497D2*
Y1574608D1*
X1962376Y1602178D2*
X1883607D1*
X1804862Y1574608D2*
Y1409252D1*
X1883607Y1365927D2*
X1962376D1*
X1863933Y1484052D2*
G02X1863933Y1484052I59059J0D01*
G01*
X620093Y1487299D2*
X720093D1*
X620093Y1887299D2*
Y1487299D1*
X720093Y1887299D2*
Y1487299D1*
X620093Y1887299D2*
X720093D1*
X1621955Y449940D2*
Y549940D1*
X1221955Y449940D2*
X1621955D1*
X1221955Y549940D2*
X1621955D1*
X1221955Y449940D2*
Y549940D1*
X1563018Y1121415D2*
X1326798D1*
Y885115D1*
X1563018D1*
Y1121415D1*
G36*
D2*
X1531522D1*
X1563018Y1089879D1*
Y1121415D1*
G37*
D34*
X1580755Y1168639D3*
D37*
X1035313Y2611166D3*
X1036353Y2521916D2*
D10*
X776523D1*
X1036353Y2411680D2*
X776523D1*
Y2521916D2*
Y2411680D1*
X1036353Y2521916D2*
Y2411680D1*
X1522685Y2644264D2*
Y2242676D1*
Y2644264D2*
X1625036D1*
X1522685Y2242676D2*
X1625036D1*
D40*
X1364438Y2592141D3*
X1165753Y449940D2*
D10*
Y549940D1*
X765753Y449940D2*
X1165753D1*
X765753Y549940D2*
X1165753D1*
X765753Y449940D2*
Y549940D1*
X1536789Y1922423D2*
Y2127147D1*
X1332056D1*
Y1922423D1*
X1410797D1*
X1458048D2*
X1536789D1*
X1458048D2*
G03X1410797Y1922423I-23626J-1D01*
G01*
X1955495Y1916173D2*
Y2120898D1*
X1750762D1*
Y1916173D1*
X1829503D1*
X1876754D2*
X1955495D1*
X1876754D2*
G03X1829503Y1916173I-23626J-1D01*
G01*
X1113070Y1504520D2*
X1565484D1*
Y1465150D2*
Y1504520D1*
X1113070Y1307669D2*
X1565484D1*
X1113070Y1465150D2*
Y1504520D1*
Y1307669D2*
Y1347039D1*
X1565484Y1307669D2*
Y1347039D1*
D44*
X1087003Y1464392D3*
X1258967Y1721883D2*
D97*
X1256590Y1726636D1*
X1251782Y1731445D1*
X1247028Y1733822D1*
X1237467D1*
X1232658Y1731445D1*
X1227905Y1726636D1*
X1225473Y1721883D1*
X1223097Y1714698D1*
Y1702705D1*
X1225473Y1695575D1*
X1227905Y1690767D1*
X1232658Y1686013D1*
X1237467Y1683581D1*
X1247028D1*
X1251782Y1686013D1*
X1256590Y1690767D1*
X1258967Y1695575D1*
X1274406Y1724205D2*
X1279214Y1726636D1*
X1286399Y1733766D1*
Y1683581D1*
X1242156Y1871868D2*
X1239780Y1876621D1*
X1234971Y1881429D1*
X1230218Y1883806D1*
X1220656D1*
X1215848Y1881429D1*
X1211095Y1876621D1*
X1208663Y1871868D1*
X1206286Y1864682D1*
Y1852689D1*
X1208663Y1845559D1*
X1211095Y1840751D1*
X1215848Y1835998D1*
X1220656Y1833566D1*
X1230218D1*
X1234971Y1835998D1*
X1239780Y1840751D1*
X1242156Y1845559D1*
X1260027Y1871812D2*
Y1874189D1*
X1262404Y1878997D1*
X1264781Y1881374D1*
X1269589Y1883750D1*
X1279151D1*
X1283904Y1881374D1*
X1286280Y1878997D1*
X1288712Y1874189D1*
Y1869436D1*
X1286280Y1864627D1*
X1281527Y1857497D1*
X1257596Y1833566D1*
X1291089D1*
X869986Y1284429D2*
X867609Y1289182D1*
X862801Y1293991D1*
X858048Y1296367D1*
X848486D1*
X843677Y1293991D1*
X838924Y1289182D1*
X836492Y1284429D1*
X834116Y1277244D1*
Y1265251D1*
X836492Y1258121D1*
X838924Y1253312D1*
X843677Y1248559D1*
X848486Y1246127D1*
X858048D1*
X862801Y1248559D1*
X867609Y1253312D1*
X869986Y1258121D1*
X890233Y1296312D2*
X916486D1*
X902172Y1277189D1*
X909357D1*
X914110Y1274812D1*
X916486Y1272436D1*
X918918Y1265251D1*
Y1260498D1*
X916486Y1253312D1*
X911733Y1248504D1*
X904548Y1246127D1*
X897363D1*
X890233Y1248504D1*
X887857Y1250936D1*
X885425Y1255689D1*
X1693711Y1453161D2*
X1691334Y1457915D1*
X1686526Y1462723D1*
X1681773Y1465100D1*
X1672211D1*
X1667403Y1462723D1*
X1662649Y1457915D1*
X1660217Y1453161D1*
X1657841Y1445976D1*
Y1433983D1*
X1660217Y1426853D1*
X1662649Y1422045D1*
X1667403Y1417292D1*
X1672211Y1414860D1*
X1681773D1*
X1686526Y1417292D1*
X1691334Y1422045D1*
X1693711Y1426853D1*
X1733082Y1414860D2*
Y1465044D1*
X1709150Y1431606D1*
X1745020D1*
X1327398Y2648375D2*
X1325021Y2653129D1*
X1320213Y2657937D1*
X1315460Y2660314D1*
X1305898D1*
X1301090Y2657937D1*
X1296336Y2653129D1*
X1293904Y2648375D1*
X1291528Y2641190D1*
Y2629197D1*
X1293904Y2622067D1*
X1296336Y2617259D1*
X1301090Y2612505D1*
X1305898Y2610074D1*
X1315460D1*
X1320213Y2612505D1*
X1325021Y2617259D1*
X1327398Y2622067D1*
X1371522Y2660258D2*
X1347646D1*
X1345269Y2638759D1*
X1347646Y2641135D1*
X1354831Y2643567D1*
X1361960D1*
X1369145Y2641135D1*
X1373954Y2636382D1*
X1376330Y2629197D1*
Y2624444D1*
X1373954Y2617259D1*
X1369145Y2612450D1*
X1361960Y2610074D1*
X1354831D1*
X1347646Y2612450D1*
X1345269Y2614882D1*
X1342837Y2619635D1*
X1325152Y2455795D2*
X1322775Y2460549D1*
X1317967Y2465357D1*
X1313214Y2467734D1*
X1303652D1*
X1298843Y2465357D1*
X1294090Y2460549D1*
X1291658Y2455795D1*
X1289282Y2448610D1*
Y2436617D1*
X1291658Y2429487D1*
X1294090Y2424679D1*
X1298843Y2419925D1*
X1303652Y2417494D1*
X1313214D1*
X1317967Y2419925D1*
X1322775Y2424679D1*
X1325152Y2429487D1*
X1369276Y2460549D2*
X1366899Y2465302D1*
X1359714Y2467678D1*
X1354961D1*
X1347776Y2465302D1*
X1342968Y2458117D1*
X1340591Y2446178D1*
Y2434240D1*
X1342968Y2424679D1*
X1347776Y2419870D1*
X1354961Y2417494D1*
X1357338D1*
X1364467Y2419870D1*
X1369276Y2424679D1*
X1371653Y2431864D1*
Y2434240D1*
X1369276Y2441425D1*
X1364467Y2446178D1*
X1357338Y2448555D1*
X1354961D1*
X1347776Y2446178D1*
X1342968Y2441425D1*
X1340591Y2434240D1*
X1038783Y2063128D2*
X1034030Y2060751D1*
X1029222Y2055943D1*
X1026845Y2051189D1*
Y2041628D1*
X1029222Y2036819D1*
X1034030Y2032066D1*
X1038783Y2029634D1*
X1045968Y2027258D1*
X1057962D1*
X1065092Y2029634D1*
X1069900Y2032066D1*
X1074653Y2036819D1*
X1077085Y2041628D1*
Y2051189D1*
X1074653Y2055942D1*
X1069900Y2060751D1*
X1065092Y2063128D1*
X1077085Y2088128D2*
X1026900Y2112060D1*
Y2078567D1*
X1310790Y2234663D2*
X1308414Y2239416D1*
X1303605Y2244224D1*
X1298852Y2246601D1*
X1289290D1*
X1284482Y2244224D1*
X1279729Y2239416D1*
X1277297Y2234663D1*
X1274920Y2227478D1*
Y2215484D1*
X1277297Y2208355D1*
X1279729Y2203546D1*
X1284482Y2198793D1*
X1289290Y2196361D1*
X1298852D1*
X1303605Y2198793D1*
X1308414Y2203546D1*
X1310790Y2208355D1*
X1338168Y2246546D2*
X1331038Y2244169D1*
X1328606Y2239416D1*
Y2234608D1*
X1331038Y2229854D1*
X1335791Y2227423D1*
X1345353Y2225046D1*
X1352538Y2222669D1*
X1357291Y2217861D1*
X1359668Y2213108D1*
Y2205923D1*
X1357291Y2201169D1*
X1354914Y2198738D1*
X1347729Y2196361D1*
X1338168D1*
X1331038Y2198738D1*
X1328606Y2201169D1*
X1326230Y2205923D1*
Y2213108D1*
X1328606Y2217861D1*
X1333415Y2222669D1*
X1340544Y2225046D1*
X1350106Y2227423D1*
X1354914Y2229854D1*
X1357291Y2234608D1*
Y2239416D1*
X1354914Y2244169D1*
X1347729Y2246546D1*
X1338168D1*
X1631096Y1561505D2*
X1626343Y1559128D1*
X1621534Y1554320D1*
X1619158Y1549567D1*
Y1540005D1*
X1621534Y1535197D1*
X1626343Y1530443D1*
X1631096Y1528012D1*
X1638281Y1525635D1*
X1650274D1*
X1657404Y1528012D1*
X1662212Y1530443D1*
X1666966Y1535197D1*
X1669398Y1540005D1*
Y1549567D1*
X1666966Y1554320D1*
X1662213Y1559128D1*
X1657404Y1561505D1*
X1635904Y1608061D2*
X1643089Y1605629D1*
X1647898Y1600876D1*
X1650274Y1593691D1*
Y1591314D1*
X1647898Y1584129D1*
X1643089Y1579376D1*
X1635904Y1576944D1*
X1633528D1*
X1626343Y1579376D1*
X1621589Y1584129D1*
X1619213Y1591314D1*
Y1593691D1*
X1621589Y1600876D1*
X1626343Y1605629D1*
X1635904Y1608061D1*
X1647898D1*
X1659836Y1605629D1*
X1667021Y1600876D1*
X1669398Y1593691D1*
Y1588937D1*
X1667021Y1581752D1*
X1662213Y1579376D1*
X1101150Y672658D2*
X1151390D1*
Y689404D1*
X1148958Y696589D1*
X1144205Y701398D1*
X1139396Y703775D1*
X1132266Y706151D1*
X1120273D1*
X1113088Y703775D1*
X1108335Y701398D1*
X1103526Y696590D1*
X1101150Y689404D1*
Y672658D1*
X1110767Y721590D2*
X1108335Y726399D1*
X1101205Y733584D1*
X1151390D1*
X1302687Y789483D2*
Y739243D1*
X1319434D1*
X1326619Y741675D1*
X1331427Y746428D1*
X1333804Y751236D1*
X1336181Y758366D1*
Y770360D1*
X1333804Y777545D1*
X1331427Y782298D1*
X1326619Y787106D1*
X1319434Y789483D1*
X1302687D1*
X1354052Y777489D2*
Y779866D1*
X1356428Y784674D1*
X1358805Y787051D1*
X1363613Y789428D1*
X1373175D1*
X1377928Y787051D1*
X1380305Y784674D1*
X1382737Y779866D1*
Y775113D1*
X1380305Y770304D1*
X1375552Y763175D1*
X1351620Y739243D1*
X1385113D1*
X827582Y1483160D2*
Y1432920D1*
X844329D1*
X851514Y1435352D1*
X856322Y1440105D1*
X858699Y1444914D1*
X861076Y1452043D1*
Y1464037D1*
X858699Y1471222D1*
X856322Y1475975D1*
X851514Y1480783D1*
X844329Y1483160D1*
X827582D1*
X881323Y1483105D2*
X907576D1*
X893262Y1463982D1*
X900447D1*
X905200Y1461605D1*
X907576Y1459228D1*
X910008Y1452043D1*
Y1447290D1*
X907576Y1440105D1*
X902823Y1435297D1*
X895638Y1432920D1*
X888453D1*
X881323Y1435297D1*
X878947Y1437729D1*
X876515Y1442482D1*
X939000Y835640D2*
Y797394D1*
X936624Y790209D1*
X934192Y787832D1*
X929439Y785400D1*
X924630D1*
X919877Y787832D1*
X917500Y790209D1*
X915068Y797394D1*
Y802147D1*
X954439Y826024D2*
X959248Y828455D1*
X966433Y835585D1*
Y785400D1*
X937830Y1137239D2*
Y1098992D1*
X935453Y1091807D1*
X933021Y1089431D1*
X928268Y1086999D1*
X923460D1*
X918706Y1089431D1*
X916330Y1091807D1*
X913898Y1098992D1*
Y1103745D1*
X977201Y1086999D2*
Y1137184D1*
X953269Y1103745D1*
X989139D1*
X1846909Y716913D2*
Y678667D1*
X1844532Y671482D1*
X1842101Y669105D1*
X1837347Y666673D1*
X1832539D1*
X1827786Y669105D1*
X1825409Y671482D1*
X1822977Y678667D1*
Y683420D1*
X1891033Y716858D2*
X1867157D1*
X1864780Y695358D1*
X1867157Y697735D1*
X1874342Y700167D1*
X1881472D1*
X1888657Y697735D1*
X1893465Y692982D1*
X1895842Y685797D1*
Y681043D1*
X1893465Y673858D1*
X1888657Y669050D1*
X1881472Y666673D1*
X1874342D1*
X1867157Y669050D1*
X1864780Y671482D1*
X1862348Y676235D1*
X1923896Y806794D2*
X1873656D1*
X1923896Y787671D1*
X1873656Y768548D1*
X1923896D1*
X1890403Y850919D2*
X1923896D1*
X1897588D2*
X1892780Y846165D1*
X1890403Y841357D1*
Y834227D1*
X1892780Y829419D1*
X1897588Y824666D1*
X1904773Y822234D1*
X1909526D1*
X1916711Y824666D1*
X1921464Y829419D1*
X1923896Y834227D1*
Y841357D1*
X1921464Y846165D1*
X1916711Y850919D1*
X1873656Y866358D2*
X1876033Y868734D1*
X1873656Y871166D1*
X1871224Y868734D1*
X1873656Y866358D1*
X1890403Y868734D2*
X1923896D1*
X1890403Y886605D2*
X1923896D1*
X1899965D2*
X1892779Y893791D1*
X1890403Y898599D1*
Y905729D1*
X1892779Y910537D1*
X1899965Y912914D1*
X1923896D1*
X1873656Y928353D2*
X1923896D1*
Y949908D1*
X1921464Y957093D1*
X1919088Y959470D1*
X1914335Y961846D1*
X1907150D1*
X1902341Y959470D1*
X1899965Y957093D1*
X1897588Y949908D1*
X1895156Y957093D1*
X1892779Y959470D1*
X1888026Y961846D1*
X1883218D1*
X1878465Y959470D1*
X1876033Y957093D1*
X1873656Y949908D1*
Y928353D1*
X1897588D2*
Y949908D1*
X1890403Y989224D2*
X1892779Y984471D1*
X1897588Y979662D1*
X1904773Y977286D1*
X1909526D1*
X1916711Y979662D1*
X1921464Y984471D1*
X1923896Y989224D1*
Y996409D1*
X1921464Y1001217D1*
X1916711Y1005970D1*
X1909526Y1008402D1*
X1904773D1*
X1897588Y1005970D1*
X1892779Y1001217D1*
X1890403Y996409D1*
Y989224D1*
Y1052526D2*
X1923896D1*
X1897588D2*
X1892779Y1047773D1*
X1890403Y1042965D1*
Y1035835D1*
X1892779Y1031027D1*
X1897588Y1026273D1*
X1904773Y1023842D1*
X1909526D1*
X1916711Y1026273D1*
X1921464Y1031027D1*
X1923896Y1035835D1*
Y1042965D1*
X1921464Y1047773D1*
X1916711Y1052526D1*
X1890403Y1067966D2*
X1923896D1*
X1904773D2*
X1897588Y1070398D1*
X1892779Y1075151D1*
X1890403Y1079959D1*
Y1087144D1*
X1873656Y1131268D2*
X1923896D1*
X1897588D2*
X1892779Y1126515D1*
X1890403Y1121707D1*
Y1114522D1*
X1892779Y1109769D1*
X1897588Y1104960D1*
X1904773Y1102584D1*
X1909526D1*
X1916711Y1104960D1*
X1921464Y1109769D1*
X1923896Y1114522D1*
Y1121707D1*
X1921464Y1126515D1*
X1916711Y1131268D1*
X1449012Y1800233D2*
X1451333Y1795480D1*
X1456142Y1790672D1*
X1460950Y1788295D1*
X1468135Y1785863D1*
X1480073D1*
X1487258Y1788295D1*
X1492012Y1790672D1*
X1496820Y1795480D1*
X1499197Y1800233D1*
Y1809795D1*
X1496820Y1814603D1*
X1492012Y1819357D1*
X1487258Y1821733D1*
X1480073Y1824165D1*
X1468135D1*
X1460950Y1821733D1*
X1456142Y1819357D1*
X1451333Y1814603D1*
X1449012Y1809795D1*
Y1800233D1*
X1489635Y1807418D2*
X1504005Y1821733D1*
X1461005Y1842036D2*
X1458629D1*
X1453820Y1844413D1*
X1451444Y1846789D1*
X1449067Y1851598D1*
Y1861159D1*
X1451444Y1865913D1*
X1453820Y1868289D1*
X1458629Y1870721D1*
X1463382D1*
X1468190Y1868289D1*
X1475320Y1863536D1*
X1499252Y1839604D1*
Y1873098D1*
X1016421Y947470D2*
X1037921D1*
X1045106Y949902D1*
X1047538Y952278D1*
X1049915Y957031D1*
Y961840D1*
X1047538Y966593D1*
X1045106Y969025D1*
X1037921Y971402D1*
X1016421D1*
Y921162D1*
X1033168Y947470D2*
X1049915Y921162D1*
X1065354Y961785D2*
X1070163Y964217D1*
X1077348Y971346D1*
Y921162D1*
X824630Y959969D2*
X846129D1*
X853314Y962400D1*
X855746Y964777D1*
X858123Y969530D1*
Y974339D1*
X855746Y979092D1*
X853314Y981524D1*
X846129Y983900D1*
X824630D1*
Y933660D1*
X841376Y959969D2*
X858123Y933660D1*
X875994Y971907D2*
Y974283D1*
X878371Y979092D1*
X880747Y981468D1*
X885556Y983845D1*
X895117D1*
X899870Y981468D1*
X902247Y979092D1*
X904679Y974283D1*
Y969530D1*
X902247Y964722D1*
X897494Y957592D1*
X873562Y933660D1*
X907055D1*
X837589Y1669736D2*
X859089D1*
X866274Y1672168D1*
X868706Y1674544D1*
X871082Y1679297D1*
Y1684106D1*
X868706Y1688859D1*
X866274Y1691291D1*
X859089Y1693668D1*
X837589D1*
Y1643428D1*
X854336Y1669736D2*
X871082Y1643428D1*
X891330Y1693612D2*
X917583D1*
X903268Y1674489D1*
X910453D1*
X915206Y1672112D1*
X917583Y1669736D1*
X920015Y1662551D1*
Y1657798D1*
X917583Y1650613D1*
X912830Y1645804D1*
X905645Y1643428D1*
X898460D1*
X891330Y1645804D1*
X888953Y1648236D1*
X886521Y1652989D1*
X1560675Y1859874D2*
X1582175D1*
X1589360Y1862306D1*
X1591792Y1864682D1*
X1594168Y1869436D1*
Y1874244D1*
X1591792Y1878997D1*
X1589360Y1881429D1*
X1582175Y1883806D1*
X1560675D1*
Y1833566D1*
X1577422Y1859874D2*
X1594168Y1833566D1*
X1633539D2*
Y1883750D1*
X1609607Y1850312D1*
X1645477D1*
X1030669Y1859874D2*
X1052169D1*
X1059354Y1862306D1*
X1061786Y1864682D1*
X1064162Y1869436D1*
Y1874244D1*
X1061786Y1878997D1*
X1059354Y1881429D1*
X1052169Y1883806D1*
X1030669D1*
Y1833566D1*
X1047416Y1859874D2*
X1064162Y1833566D1*
X1108286Y1883750D2*
X1084410D1*
X1082033Y1862251D1*
X1084410Y1864627D1*
X1091595Y1867059D1*
X1098725D1*
X1105910Y1864627D1*
X1110718Y1859874D1*
X1113095Y1852689D1*
Y1847936D1*
X1110718Y1840751D1*
X1105910Y1835942D1*
X1098725Y1833566D1*
X1091595D1*
X1084410Y1835942D1*
X1082033Y1838374D1*
X1079602Y1843127D1*
X1038323Y1272436D2*
X1059823D1*
X1067008Y1274868D1*
X1069440Y1277244D1*
X1071817Y1281997D1*
Y1286806D1*
X1069440Y1291559D1*
X1067008Y1293991D1*
X1059823Y1296367D1*
X1038323D1*
Y1246127D1*
X1055070Y1272436D2*
X1071817Y1246127D1*
X1115941Y1289182D2*
X1113564Y1293936D1*
X1106379Y1296312D1*
X1101626D1*
X1094441Y1293936D1*
X1089632Y1286751D1*
X1087256Y1274812D1*
Y1262874D1*
X1089632Y1253312D1*
X1094441Y1248504D1*
X1101626Y1246127D1*
X1104002D1*
X1111132Y1248504D1*
X1115941Y1253312D1*
X1118317Y1260498D1*
Y1262874D1*
X1115941Y1270059D1*
X1111132Y1274812D1*
X1104002Y1277189D1*
X1101626D1*
X1094441Y1274812D1*
X1089632Y1270059D1*
X1087256Y1262874D1*
X872966Y2274299D2*
X894465D1*
X901650Y2276731D1*
X904082Y2279108D1*
X906459Y2283861D1*
Y2288669D1*
X904082Y2293423D1*
X901650Y2295854D1*
X894465Y2298231D1*
X872966D1*
Y2247991D1*
X889712Y2274299D2*
X906459Y2247991D1*
X931460D2*
X955391Y2298176D1*
X921898D1*
X801362Y1905680D2*
X822862D1*
X830047Y1908112D1*
X832479Y1910488D1*
X834855Y1915242D1*
Y1920050D1*
X832479Y1924803D1*
X830047Y1927235D1*
X822862Y1929612D1*
X801362D1*
Y1879372D1*
X818108Y1905680D2*
X834855Y1879372D1*
X862233Y1929556D2*
X855103Y1927180D1*
X852671Y1922427D1*
Y1917618D1*
X855103Y1912865D1*
X859856Y1910433D1*
X869418Y1908057D1*
X876603Y1905680D1*
X881356Y1900872D1*
X883732Y1896118D1*
Y1888933D1*
X881356Y1884180D1*
X878979Y1881748D1*
X871794Y1879372D1*
X862233D1*
X855103Y1881748D1*
X852671Y1884180D1*
X850294Y1888933D1*
Y1896118D1*
X852671Y1900872D1*
X857479Y1905680D1*
X864609Y1908057D1*
X874171Y1910433D1*
X878979Y1912865D1*
X881356Y1917618D1*
Y1922427D1*
X878979Y1927180D1*
X871794Y1929556D1*
X862233D1*
X1925513Y1859874D2*
X1947013D1*
X1954198Y1862306D1*
X1956630Y1864682D1*
X1959007Y1869436D1*
Y1874244D1*
X1956630Y1878997D1*
X1954198Y1881429D1*
X1947013Y1883806D1*
X1925513D1*
Y1833566D1*
X1942260Y1859874D2*
X1959007Y1833566D1*
X2005563Y1867059D2*
X2003131Y1859874D1*
X1998378Y1855066D1*
X1991193Y1852689D1*
X1988816D1*
X1981631Y1855066D1*
X1976878Y1859874D1*
X1974446Y1867059D1*
Y1869436D1*
X1976878Y1876621D1*
X1981631Y1881374D1*
X1988816Y1883750D1*
X1991193D1*
X1998378Y1881374D1*
X2003131Y1876621D1*
X2005563Y1867059D1*
Y1855066D1*
X2003131Y1843127D1*
X1998378Y1835942D1*
X1991193Y1833566D1*
X1986439D1*
X1979254Y1835942D1*
X1976878Y1840751D1*
X1723128Y1859874D2*
X1744628D1*
X1751813Y1862306D1*
X1754245Y1864682D1*
X1756622Y1869436D1*
Y1874244D1*
X1754245Y1878997D1*
X1751813Y1881429D1*
X1744628Y1883806D1*
X1723128D1*
Y1833566D1*
X1739875Y1859874D2*
X1756622Y1833566D1*
X1772061Y1874189D2*
X1776869Y1876621D1*
X1784054Y1883750D1*
Y1833566D1*
X1813864Y1883750D2*
X1806679Y1881374D1*
X1801870Y1874189D1*
X1799494Y1862251D1*
Y1855066D1*
X1801870Y1843127D1*
X1806679Y1835942D1*
X1813864Y1833566D1*
X1818617D1*
X1825802Y1835942D1*
X1830555Y1843127D1*
X1832987Y1855066D1*
Y1862251D1*
X1830555Y1874189D1*
X1825802Y1881374D1*
X1818617Y1883750D1*
X1813864D1*
X1830555Y1874189D2*
X1801870Y1843127D1*
X1027702Y1709890D2*
X1049202D1*
X1056387Y1712322D1*
X1058819Y1714698D1*
X1061196Y1719451D1*
Y1724260D1*
X1058819Y1729013D1*
X1056387Y1731445D1*
X1049202Y1733822D1*
X1027702D1*
Y1683581D1*
X1044449Y1709890D2*
X1061196Y1683581D1*
X1076635Y1724205D2*
X1081444Y1726636D1*
X1088629Y1733766D1*
Y1683581D1*
X1104068Y1724205D2*
X1108876Y1726636D1*
X1116061Y1733766D1*
Y1683581D1*
X1674336Y1151092D2*
Y1172592D1*
X1671904Y1179777D1*
X1669528Y1182209D1*
X1664774Y1184585D1*
X1659966D1*
X1655213Y1182209D1*
X1652781Y1179777D1*
X1650404Y1172592D1*
Y1151092D1*
X1700644D1*
X1674336Y1167838D2*
X1700644Y1184585D1*
X1660021Y1200024D2*
X1657589Y1204833D1*
X1650460Y1212018D1*
X1700644D1*
X1662398Y1229889D2*
X1660021D1*
X1655213Y1232265D1*
X1652836Y1234642D1*
X1650460Y1239451D1*
Y1249012D1*
X1652836Y1253765D1*
X1655213Y1256142D1*
X1660021Y1258574D1*
X1664774D1*
X1669583Y1256142D1*
X1676713Y1251389D1*
X1700644Y1227457D1*
Y1260950D1*
X827601Y1589024D2*
X849101D1*
X856286Y1591456D1*
X858717Y1593832D1*
X861094Y1598586D1*
Y1603394D1*
X858717Y1608147D1*
X856286Y1610579D1*
X849101Y1612956D1*
X827601D1*
Y1562716D1*
X844347Y1589024D2*
X861094Y1562716D1*
X876533Y1603339D2*
X881342Y1605771D1*
X888527Y1612900D1*
Y1562716D1*
X908774Y1612900D2*
X935028D1*
X920713Y1593777D1*
X927898D1*
X932651Y1591401D1*
X935028Y1589024D1*
X937459Y1581839D1*
Y1577086D1*
X935028Y1569901D1*
X930274Y1565092D1*
X923089Y1562716D1*
X915904D1*
X908774Y1565092D1*
X906398Y1567524D1*
X903966Y1572277D1*
X570802Y1231672D2*
Y1253172D1*
X568370Y1260357D1*
X565993Y1262789D1*
X561240Y1265165D1*
X556432D1*
X551679Y1262789D1*
X549247Y1260357D1*
X546870Y1253172D1*
Y1231672D1*
X597110D1*
X570802Y1248419D2*
X597110Y1265165D1*
X546870Y1311721D2*
Y1280605D1*
X597110D1*
X570802D2*
Y1299728D1*
X605401Y1327161D2*
Y1372592D1*
X563617Y1416716D2*
X597110D1*
X570802D2*
X565993Y1411963D1*
X563617Y1407155D1*
Y1400025D1*
X565993Y1395216D1*
X570802Y1390463D1*
X577987Y1388031D1*
X582740D1*
X589925Y1390463D1*
X594678Y1395216D1*
X597110Y1400025D1*
Y1407155D1*
X594678Y1411963D1*
X589925Y1416716D1*
X563617Y1432155D2*
X597110D1*
X573178D2*
X565993Y1439340D1*
X563617Y1444149D1*
Y1451279D1*
X565993Y1456087D1*
X573178Y1458464D1*
X597110D1*
X546870Y1481088D2*
X587548D1*
X594678Y1483465D1*
X597110Y1488273D1*
Y1493026D1*
X563617Y1473903D2*
Y1490650D1*
X570802Y1948462D2*
Y1969961D1*
X568370Y1977146D1*
X565993Y1979578D1*
X561240Y1981955D1*
X556432D1*
X551679Y1979578D1*
X549247Y1977146D1*
X546870Y1969961D1*
Y1948462D1*
X597110D1*
X570802Y1965208D2*
X597110Y1981955D1*
X546870Y2028511D2*
Y1997394D1*
X597110D1*
X570802D2*
Y2016517D1*
X605401Y2043950D2*
Y2089382D1*
X563617Y2104821D2*
X597110D1*
X573178D2*
X565993Y2112006D1*
X563617Y2116814D1*
Y2123944D1*
X565993Y2128753D1*
X573178Y2131129D1*
X597110D1*
X573178D2*
X565993Y2138314D1*
X563617Y2143123D1*
Y2150252D1*
X565993Y2155061D1*
X573178Y2157493D1*
X597110D1*
X563617Y2201617D2*
X597110D1*
X570802D2*
X565993Y2196864D1*
X563617Y2192055D1*
Y2184925D1*
X565993Y2180117D1*
X570802Y2175364D1*
X577987Y2172932D1*
X582740D1*
X589925Y2175364D1*
X594678Y2180117D1*
X597110Y2184925D1*
Y2192055D1*
X594678Y2196864D1*
X589925Y2201617D1*
X546870Y2217056D2*
X549247Y2219433D1*
X546870Y2221865D1*
X544438Y2219433D1*
X546870Y2217056D1*
X563617Y2219433D2*
X597110D1*
X563617Y2237304D2*
X597110D1*
X573178D2*
X565993Y2244489D1*
X563617Y2249297D1*
Y2256427D1*
X565993Y2261235D1*
X573178Y2263612D1*
X597110D1*
X1926009Y1711508D2*
X1921256Y1716316D1*
X1914071Y1718693D1*
X1904509D1*
X1897324Y1716316D1*
X1892516Y1711508D1*
Y1706755D1*
X1894948Y1701946D1*
X1897324Y1699570D1*
X1902078Y1697193D1*
X1916448Y1692385D1*
X1921256Y1690008D1*
X1923633Y1687576D1*
X1926009Y1682823D1*
Y1675638D1*
X1921256Y1670885D1*
X1914071Y1668453D1*
X1904509D1*
X1897324Y1670885D1*
X1892516Y1675638D1*
X1941449Y1709076D2*
X1946257Y1711508D1*
X1953442Y1718638D1*
Y1668453D1*
X554055Y1627681D2*
X549247Y1622927D1*
X546870Y1615742D1*
Y1606181D1*
X549247Y1598996D1*
X554055Y1594187D1*
X558808D1*
X563617Y1596619D1*
X565993Y1598996D1*
X568370Y1603749D1*
X573178Y1618119D1*
X575555Y1622927D1*
X577987Y1625304D1*
X582740Y1627681D1*
X589925D1*
X594678Y1622927D1*
X597110Y1615742D1*
Y1606181D1*
X594678Y1598996D1*
X589925Y1594187D1*
X563617Y1655058D2*
X565993Y1650305D1*
X570802Y1645496D1*
X577987Y1643120D1*
X582740D1*
X589925Y1645496D1*
X594678Y1650305D1*
X597110Y1655058D1*
Y1662243D1*
X594678Y1667052D1*
X589925Y1671805D1*
X582740Y1674237D1*
X577987D1*
X570802Y1671805D1*
X565993Y1667052D1*
X563617Y1662243D1*
Y1655058D1*
Y1689676D2*
X597110D1*
X573178D2*
X565993Y1696861D1*
X563617Y1701669D1*
Y1708799D1*
X565993Y1713608D1*
X573178Y1715984D1*
X597110D1*
X546870Y1731423D2*
X549247Y1733800D1*
X546870Y1736232D1*
X544438Y1733800D1*
X546870Y1731423D1*
X563617Y1733800D2*
X597110D1*
X570802Y1780411D2*
X565993Y1775603D1*
X563617Y1770794D1*
Y1763665D1*
X565993Y1758856D1*
X570802Y1754103D1*
X577987Y1751671D1*
X582740D1*
X589925Y1754103D1*
X594678Y1758856D1*
X597110Y1763665D1*
Y1770794D1*
X594678Y1775603D1*
X589925Y1780411D1*
X1382584Y615978D2*
X1377831Y620786D1*
X1370646Y623163D1*
X1361085D1*
X1353900Y620786D1*
X1349091Y615978D1*
Y611224D1*
X1351523Y606416D1*
X1353900Y604039D1*
X1358653Y601663D1*
X1373023Y596854D1*
X1377831Y594478D1*
X1380208Y592046D1*
X1382584Y587293D1*
Y580108D1*
X1377831Y575355D1*
X1370646Y572923D1*
X1361085D1*
X1353900Y575355D1*
X1349091Y580108D1*
X1398024Y623163D2*
X1410017Y572923D1*
X1421955Y623163D1*
X1433894Y572923D1*
X1445887Y623163D1*
X1461326D2*
Y572923D1*
X1478073D1*
X1485258Y575355D1*
X1490066Y580108D1*
X1492443Y584916D1*
X1494820Y592046D1*
Y604039D1*
X1492443Y611224D1*
X1490066Y615978D1*
X1485258Y620786D1*
X1478073Y623163D1*
X1461326D1*
X1414445Y1273339D2*
Y1237469D1*
X1416822Y1230284D1*
X1421630Y1225530D1*
X1428815Y1223099D1*
X1433568D1*
X1440753Y1225530D1*
X1445562Y1230284D1*
X1447938Y1237469D1*
Y1273339D1*
X1463378Y1263722D2*
X1468186Y1266154D1*
X1475371Y1273283D1*
Y1223099D1*
X679885Y2499192D2*
Y2463322D1*
X682262Y2456137D1*
X687071Y2451383D1*
X694256Y2448952D1*
X699009D1*
X706194Y2451383D1*
X711002Y2456137D1*
X713379Y2463322D1*
Y2499192D1*
X731250Y2487198D2*
Y2489575D1*
X733626Y2494383D1*
X736003Y2496760D1*
X740812Y2499136D1*
X750373D1*
X755126Y2496760D1*
X757503Y2494383D1*
X759935Y2489575D1*
Y2484822D1*
X757503Y2480013D1*
X752750Y2472883D1*
X728818Y2448952D1*
X762311D1*
X1407135Y2472164D2*
Y2436294D1*
X1409512Y2429109D1*
X1414321Y2424356D1*
X1421506Y2421924D1*
X1426259D1*
X1433444Y2424356D1*
X1438252Y2429109D1*
X1440629Y2436294D1*
Y2472164D1*
X1480000Y2421924D2*
Y2472109D1*
X1456068Y2438671D1*
X1491938D1*
X848737Y623163D2*
Y587293D1*
X851114Y580108D1*
X855922Y575355D1*
X863107Y572923D1*
X867860D1*
X875046Y575355D1*
X879854Y580108D1*
X882231Y587293D1*
Y623163D1*
X931163Y615978D2*
X926410Y620786D1*
X919225Y623163D1*
X909663D1*
X902478Y620786D1*
X897670Y615978D1*
Y611224D1*
X900102Y606416D1*
X902478Y604039D1*
X907231Y601663D1*
X921602Y596854D1*
X926410Y594478D1*
X928787Y592046D1*
X931163Y587293D1*
Y580108D1*
X926410Y575355D1*
X919225Y572923D1*
X909663D1*
X902478Y575355D1*
X897670Y580108D1*
X984904Y572923D2*
X965726Y623163D1*
X946602Y572923D1*
X953787Y589669D2*
X977719D1*
X1000343Y599231D2*
X1021843D1*
X1029028Y601663D1*
X1031460Y604039D1*
X1033837Y608793D1*
Y613601D1*
X1031460Y618354D1*
X1029028Y620786D1*
X1021843Y623163D1*
X1000343D1*
Y572923D1*
X1017090Y599231D2*
X1033837Y572923D1*
X1066023Y623163D2*
Y572923D1*
X1049276Y623163D2*
X1082769D1*
X1374740Y2200370D2*
X1393863Y2150130D1*
X1412987Y2200370D1*
X1442796D2*
X1437987Y2197993D1*
X1433234Y2193185D1*
X1430802Y2188432D1*
X1428426Y2181247D1*
Y2169253D1*
X1430802Y2162124D1*
X1433234Y2157315D1*
X1437987Y2152562D1*
X1442796Y2150130D1*
X1452358D1*
X1457111Y2152562D1*
X1461919Y2157315D1*
X1464296Y2162124D1*
X1466672Y2169253D1*
Y2181247D1*
X1464296Y2188432D1*
X1461919Y2193185D1*
X1457111Y2197993D1*
X1452358Y2200370D1*
X1442796D1*
X1482112Y2190753D2*
X1486920Y2193185D1*
X1494105Y2200315D1*
Y2150130D1*
X1782696Y2194121D2*
X1801819Y2143881D1*
X1820943Y2194121D1*
X1850752D2*
X1845944Y2191744D1*
X1841190Y2186936D1*
X1838759Y2182182D1*
X1836382Y2174997D1*
Y2163004D1*
X1838759Y2155874D1*
X1841190Y2151066D1*
X1845944Y2146313D1*
X1850752Y2143881D1*
X1860314D1*
X1865067Y2146313D1*
X1869875Y2151066D1*
X1872252Y2155874D1*
X1874628Y2163004D1*
Y2174997D1*
X1872252Y2182182D1*
X1869875Y2186936D1*
X1865067Y2191744D1*
X1860314Y2194121D1*
X1850752D1*
X1892500Y2182127D2*
Y2184504D1*
X1894876Y2189312D1*
X1897253Y2191689D1*
X1902061Y2194065D1*
X1911623D1*
X1916376Y2191689D1*
X1918753Y2189312D1*
X1921184Y2184504D1*
Y2179751D1*
X1918753Y2174942D1*
X1913999Y2167812D1*
X1890068Y2143881D1*
X1923561D1*
X1302197Y1577743D2*
X1321320Y1553811D1*
Y1527503D1*
X1340444Y1577743D2*
X1321320Y1553811D1*
X1355883Y1568126D2*
X1360691Y1570558D1*
X1367876Y1577687D1*
Y1527503D1*
M02*
