M48
INCH
T01C0.0191
T02C0.0354
T03C0.038
T04C0.0394
T05C0.1181
%
T01
X+014594Y+006499
X+014657Y+007437
X+014157Y+007437
X+013344Y+007624
X+012845Y+008499
X+011395Y+008809
X+011106Y+007519
X+011907Y+010811
X+012665Y+012358
X+014344Y+012749
X+013671Y+010728
X+013642Y+009942
X+015264Y+010328
X+016563Y+012878
X+016043Y+014957
X+015407Y+015498
X+016010Y+015878
X+015769Y+016933
X+017593Y+017036
X+019343Y+017242
X+019343Y+018460
X+017277Y+018848
X+016407Y+019060
X+013719Y+016373
X+013032Y+017061
X+012595Y+015436
X+010345Y+015706
X+009720Y+017623
X+008343Y+016709
X+007472Y+014823
X+005904Y+011881
X+010095Y+012624
X+011532Y+018623
X+013407Y+022310
X+012845Y+023310
X+013157Y+025310
X+014282Y+024747
X+008187Y+024937
X+017640Y+014790
X+019687Y+012187
X+018156Y+011249
X+018239Y+010249
X+015594Y+006437
T02
X+020094Y+005937
X+020094Y+004937
X+019094Y+004937
X+019094Y+005937
X+018094Y+005937
X+018094Y+004937
X+017094Y+004937
X+017094Y+005937
X+015720Y+004999
X+014720Y+004999
X+013720Y+004999
X+012720Y+004999
X+011158Y+004999
X+010158Y+004999
X+009158Y+004999
X+008158Y+004999
X+006701Y+013123
X+006701Y+014123
X+006701Y+015373
X+006701Y+016373
X+006701Y+017373
X+006701Y+018373
X+006701Y+019560
X+006701Y+020560
X+006701Y+021560
X+006701Y+022560
X+012844Y+020748
X+012844Y+019748
X+015844Y+019748
X+015844Y+020748
X+017031Y+020685
X+017031Y+019685
X+020031Y+019685
X+020031Y+020685
X+019969Y+010999
X+019969Y+009999
X+019969Y+008999
X+019969Y+007999
T03
X+008408Y+007124
X+009408Y+007124
X+010408Y+007124
X+010532Y+010374
X+009532Y+010374
X+008532Y+010374
T04
X+008158Y+019967
X+010126Y+019967
X+009142Y+021935
X+018344Y+016120
X+020116Y+016120
X+020116Y+013561
X+018344Y+013561
T05
X+004976Y+025814
X+004976Y+004954
T00
M30
